<svg width="336" height="51" viewBox="0 0 336 51" fill="none" xmlns="http://www.w3.org/2000/svg">
<path d="M0.570015 1.96H1.12L2.06 3.41H2.65L1.65 1.92C1.77151 1.92427 1.89259 1.90332 2.00559 1.85847C2.1186 1.81361 2.22109 1.74583 2.30659 1.65939C2.39209 1.57295 2.45874 1.46973 2.50236 1.35624C2.54597 1.24275 2.56561 1.12145 2.56 1C2.56 0.35 2.17001 -2.09808e-07 1.35001 -2.09808e-07H7.32422e-06V3.42H0.549995L0.570015 1.96ZM0.570015 0.47H1.28001C1.64001 0.47 2.02 0.52 2.02 0.97C2.02 1.42 1.6 1.51 1.12 1.51H0.560005L0.570015 0.47Z" transform="translate(330.78 4.71997)" fill="#231F20"/>
<path d="M3.35999 6.63976C4.01486 6.63187 4.6528 6.43047 5.19348 6.0609C5.73417 5.69133 6.15346 5.1701 6.39862 4.5628C6.64378 3.95549 6.70384 3.28925 6.57126 2.64789C6.43867 2.00653 6.11937 1.41871 5.6535 0.958392C5.18764 0.498074 4.59603 0.185824 3.95312 0.0609299C3.31022 -0.0639644 2.64476 0.00407702 2.04044 0.256493C1.43611 0.508908 0.919923 0.934422 0.556854 1.47949C0.193786 2.02456 4.75355e-05 2.66484 0 3.31976C0.0105267 4.20394 0.369153 5.04833 0.998138 5.66982C1.62712 6.29132 2.47575 6.63982 3.35999 6.63976ZM3.35999 0.419761C3.92931 0.439407 4.48026 0.626292 4.94403 0.957093C5.4078 1.28789 5.76387 1.74796 5.9678 2.27986C6.17174 2.81177 6.21448 3.39195 6.09073 3.94801C5.96698 4.50406 5.6822 5.01136 5.27194 5.40658C4.86168 5.8018 4.3441 6.06743 3.78381 6.17033C3.22353 6.27323 2.64535 6.20884 2.12143 5.98519C1.59751 5.76154 1.15105 5.38853 0.837799 4.91273C0.524546 4.43694 0.35836 3.87942 0.359985 3.30976C0.365163 2.9224 0.447112 2.53992 0.601074 2.18444C0.755036 1.82896 0.977964 1.50753 1.25696 1.23877C1.53595 0.970006 1.86549 0.759236 2.22647 0.618654C2.58745 0.478073 2.97271 0.410471 3.35999 0.419761Z" transform="translate(328.71 3.11035)" fill="#231F20"/>
<path d="M53.96 26.85C53.96 32.53 50.57 34.01 48.33 34.01C45.06 34.01 43.25 32.53 43.25 28.27V9.7H33.06V0H-3.8147e-08V9.8H11.08V41.75H22.33V9.75H32.96V28.95C32.96 37.34 35.56 42.65 44.58 42.65C46.4887 42.6262 48.3615 42.1285 50.0302 41.2017C51.6989 40.2748 53.1112 38.9478 54.14 37.34H54.26V41.75H64.26V9.75H53.96V26.85Z" fill="#231F20"/>
<path d="M18.57 0.00226358C16.8519 -0.0342959 15.1533 0.372543 13.6382 1.18353C12.123 1.99452 10.8425 3.1823 9.92 4.63226H9.8V0.932264H9.15527e-07V42.2523H10.28V29.5123H10.4C11.4132 30.9377 12.7683 32.0858 14.3409 32.8511C15.9134 33.6165 17.653 33.9744 19.4 33.8923C28.29 33.8923 32.65 25.9923 32.65 17.6623C32.61 8.66226 28.44 0.00226358 18.57 0.00226358ZM16.15 25.8723C11.49 25.8723 9.92 22.2323 9.92 16.6223C9.92 10.0223 13.43 8.05226 16.22 8.05226C20.76 8.05226 22.33 12.5523 22.33 16.6223C22.32 21.0023 20.71 25.8723 16.15 25.8723Z" transform="translate(68 8.74805)" fill="#231F20"/>
<path d="M32.61 17.6432C32.61 8.64318 28.44 0.00318069 18.61 0.00318069C16.8852 -0.0403258 15.1784 0.363192 13.6557 1.1745C12.1329 1.98582 10.846 3.17732 9.92 4.63318H9.8V0.93318H1.83105e-06V42.2332H10.29V29.4932H10.41C11.4232 30.9187 12.7783 32.0668 14.3509 32.8321C15.9234 33.5974 17.663 33.9554 19.41 33.8732C28.25 33.8732 32.61 25.9832 32.61 17.6432ZM9.92 16.6432C9.92 10.0432 13.43 8.07318 16.21 8.07318C20.75 8.07318 22.32 12.5732 22.32 16.6432C22.32 21.0232 20.75 25.8932 16.15 25.8932C11.55 25.8932 9.92 22.2132 9.92 16.6032V16.6432Z" transform="translate(102.79 8.7666)" fill="#231F20"/>
<path d="M17.1812 33.8927C24.1812 33.8927 30.9212 30.6827 32.7912 23.2827H23.1712C22.6549 24.3875 21.8202 25.3129 20.7743 25.94C19.7284 26.5672 18.519 26.8676 17.3012 26.8027C12.9412 26.8027 10.4612 23.9027 10.3012 19.5227H33.3512C33.8212 8.66273 28.1912 0.00272707 16.9412 0.00272707C14.714 -0.0375995 12.5013 0.369685 10.4344 1.20043C8.36751 2.03118 6.48844 3.26847 4.90863 4.83896C3.32881 6.40945 2.08041 8.28116 1.23744 10.3431C0.394469 12.4051 -0.0259066 14.6153 0.00123263 16.8427C-0.00876737 27.6027 6.95124 33.8927 17.1812 33.8927ZM16.9412 7.12273C20.3912 7.12273 22.8712 10.1227 23.0512 13.6627H10.2812C10.8812 9.77273 13.3012 7.12273 16.9412 7.12273Z" transform="translate(137.269 8.74731)" fill="#231F20"/>
<path d="M21.12 9.83053V0.250527C20.6185 0.0770602 20.0906 -0.00754265 19.56 0.000527286C15.14 0.000527286 11.63 2.16053 10.12 6.23053H10V0.620527H3.66211e-06V32.6705H10.28V17.4305C10.28 13.4305 12.94 9.84053 18.02 9.84053L21.12 9.83053Z" transform="translate(172.87 9.07959)" fill="#231F20"/>
<path d="M39.94 -1.90735e-07L34.79 20.66H34.67L30.07 -1.90735e-07H20.27L15.79 20.72H15.67L10.41 -1.90735e-07H-6.71387e-06L9.8 32.02H20.21L25.11 10.73H25.24L30.19 32.02H40.6L50.41 -1.90735e-07H39.94Z" transform="translate(195.29 9.7002)" fill="#231F20"/>
<path d="M30.78 32.9529C30.78 32.9529 30.78 27.4629 30.78 24.7429V10.7429C30.78 1.6729 23.58 0.0128995 16.14 0.0128995C12.672 -0.110536 9.22997 0.6536 6.14 2.2329C4.64201 3.10711 3.40056 4.36026 2.54042 5.86638C1.68028 7.37249 1.23178 9.0785 1.24 10.8129H10.86C11.34 8.1029 13.16 6.8129 16 6.8129C18.12 6.8129 21 7.7329 21 10.1429C21 12.1429 20 12.7329 18.28 13.1429C11.14 14.6229 -1.2207e-06 13.8229 -1.2207e-06 24.2429C-1.2207e-06 30.8429 4.72001 33.9329 10.71 33.9329C14.46 33.9329 18.4 32.8229 21.06 29.9329C21.18 30.9829 21.15 32.9329 21.15 32.9329L30.78 32.9529ZM14.57 27.4029C12.27 27.4029 10.27 26.3529 10.27 23.7629C10.27 21.1729 12.21 20.2429 14.51 19.6929C16.81 19.1429 19.41 18.8929 20.86 17.9629C21.1 24.5229 19.47 27.3629 14.57 27.3629V27.4029Z" transform="translate(243.99 8.79712)" fill="#231F20"/>
<path d="M23.1812 23.2827C22.6649 24.3875 21.8302 25.3129 20.7843 25.94C19.7384 26.5672 18.529 26.8676 17.3112 26.8027C12.9512 26.8027 10.4712 23.9027 10.3112 19.5227H33.3612C33.8312 8.66273 28.2012 0.00272707 16.9412 0.00272707C14.714 -0.0375995 12.5013 0.369685 10.4344 1.20043C8.36749 2.03118 6.48843 3.26847 4.90861 4.83896C3.3288 6.40945 2.08041 8.28116 1.23744 10.3431C0.394469 12.4051 -0.0259066 14.6153 0.00123263 16.8427C0.00123263 27.5727 7.00124 33.8427 17.1912 33.8427C24.1912 33.8427 30.9312 30.6327 32.8012 23.2327L23.1812 23.2827ZM16.9412 7.12273C20.3912 7.12273 22.8712 10.1227 23.0512 13.6627H10.2912C10.9412 9.77273 13.3212 7.12273 16.9412 7.12273Z" transform="translate(299.769 8.74731)" fill="#231F20"/>
<path d="M18.04 9.84063H21.12V0.250635C20.6187 0.0763638 20.0906 -0.00826204 19.56 0.000635116C15.14 0.000635116 11.63 2.16064 10.12 6.23064H10V0.630635H-2.44141e-06V32.6306H10.29V17.4306C10.2458 16.4084 10.4173 15.3883 10.7933 14.4367C11.1693 13.4851 11.7414 12.6233 12.4724 11.9074C13.2035 11.1915 14.077 10.6374 15.0362 10.2814C15.9955 9.92528 17.0189 9.77512 18.04 9.84063Z" transform="translate(278.52 9.11938)" fill="#231F20"/>
</svg>
