<?xml version="1.0" encoding="utf-8"?><svg xmlns="http://www.w3.org/2000/svg" xmlns:xlink="http://www.w3.org/1999/xlink"><symbol viewBox="0 0 15 18" id="account" xmlns="http://www.w3.org/2000/svg"><path d="M14.286 14.471c0-2.935-.726-6.328-3.65-6.328a4.983 4.983 0 0 1-6.986 0C.725 8.143 0 11.536 0 14.47c0 1.63 1.071 2.958 2.377 2.958h9.531c1.306 0 2.378-1.329 2.378-2.958zm-2.857-9.9a4.287 4.287 0 0 0-8.572 0 4.287 4.287 0 0 0 8.572 0z"/></symbol><symbol viewBox="0 0 10 15" id="address" xmlns="http://www.w3.org/2000/svg"><path fill-rule="evenodd" clip-rule="evenodd" d="M8.562 6.556l-4.053 8.406L.454 6.556a4.626 4.626 0 0 1 0-3.997C1.545.3 4.245-.642 6.484.461c2.238 1.105 3.17 3.829 2.078 6.095zm-3.998.824c1.513 0 2.74-1.24 2.74-2.769 0-1.529-1.227-2.769-2.74-2.769-1.512 0-2.739 1.24-2.739 2.769 0 1.53 1.227 2.769 2.74 2.769z"/></symbol><symbol viewBox="0 0 17 14" id="apply" xmlns="http://www.w3.org/2000/svg"><path d="M1 6l6 6.5L15.5 1z"/></symbol><symbol viewBox="0 0 14 12" id="apply-green" xmlns="http://www.w3.org/2000/svg"><path d="M1 5.13l4.957 5.37L12.978 1"/></symbol><symbol viewBox="0 0 18 37" id="arrow" xmlns="http://www.w3.org/2000/svg"><path d="M1.012 0c.031 0 .063.001.094.004V.002a.994.994 0 0 1 .672.348l14.908 16.896c.086.074.158.162.215.26l.004.006a1 1 0 0 1-.31 1.38l-.024.015L1.778 35.673a1 1 0 1 1-1.499-1.32l14.416-16.34L.28 1.673A.999.999 0 0 1 .35.261.978.978 0 0 1 1.012 0z"/></symbol><symbol viewBox="0 0 10 10" id="arrow-up" xmlns="http://www.w3.org/2000/svg"><path fill-rule="evenodd" clip-rule="evenodd" d="M0 5l.875.875 3.5-3.5V10h1.25V2.375l3.5 3.5L10 5 5 0 0 5z"/></symbol><symbol viewBox="0 0 64 64" id="attention" xmlns="http://www.w3.org/2000/svg"><path fill-rule="evenodd" clip-rule="evenodd" d="M32 62C15.431 62 2 48.569 2 32 2 15.431 15.431 2 32 2c16.569 0 30 13.431 30 30 0 16.569-13.431 30-30 30zm0 2C14.327 64 0 49.673 0 32 0 14.327 14.327 0 32 0c17.673 0 32 14.327 32 32 0 17.673-14.327 32-32 32z"/><path d="M32.387 50.701c2.186 0 3.958-1.706 3.958-3.81 0-2.106-1.772-3.812-3.958-3.812s-3.958 1.706-3.958 3.811 1.772 3.811 3.958 3.811zm.17-37.402h-.34c-2.204.163-3.957 1.96-3.957 4.137l3.392 21.778h1.527l3.392-21.778c-.056-2.178-1.752-3.92-4.014-4.137z"/></symbol><symbol viewBox="0 0 19 17" id="basket" xmlns="http://www.w3.org/2000/svg"><path d="M7.143 15c0-.781-.647-1.429-1.429-1.429-.781 0-1.428.648-1.428 1.429s.647 1.429 1.428 1.429c.782 0 1.429-.648 1.429-1.429zm10 0c0-.781-.648-1.429-1.429-1.429s-1.428.648-1.428 1.429.647 1.429 1.428 1.429A1.44 1.44 0 0 0 17.143 15zM18.57 2.857a.72.72 0 0 0-.714-.714H4.453C4.342 1.607 4.32.714 3.571.714H.714A.72.72 0 0 0 0 1.43c0 .39.324.714.714.714h2.277l1.976 9.185c-.179.346-.681 1.183-.681 1.53 0 .39.323.713.714.713h11.429a.72.72 0 0 0 .714-.714.72.72 0 0 0-.714-.714H6.16c.111-.223.268-.458.268-.714 0-.268-.09-.525-.146-.782l11.652-1.361a.732.732 0 0 0 .636-.715V2.857z"/></symbol><symbol viewBox="0 0 22 24" id="basket-2" xmlns="http://www.w3.org/2000/svg"><path d="M7.785 19.567a.48.48 0 0 1-.486.487h-.973a.48.48 0 0 1-.487-.487V8.862a.48.48 0 0 1 .487-.486h.973a.48.48 0 0 1 .486.486v10.705zm3.893 0a.48.48 0 0 1-.487.487h-.973a.48.48 0 0 1-.486-.487V8.862a.48.48 0 0 1 .486-.486h.973a.48.48 0 0 1 .487.486v10.705zm3.893 0a.48.48 0 0 1-.487.487h-.973a.48.48 0 0 1-.487-.487V8.862a.48.48 0 0 1 .487-.486h.973a.48.48 0 0 1 .487.486v10.705zM7.299 4.483l.745-1.78a.512.512 0 0 1 .258-.166h4.82a.586.586 0 0 1 .26.167l.729 1.779H7.299zm14.11.486a.48.48 0 0 0-.486-.486h-4.698l-1.065-2.54C14.856 1.199 13.944.59 13.138.59H8.272c-.806 0-1.718.608-2.022 1.354L5.185 4.483H.487A.48.48 0 0 0 0 4.969v.974a.48.48 0 0 0 .487.486h1.46v14.476c0 1.673 1.094 3.041 2.432 3.041h12.652c1.338 0 2.433-1.429 2.433-3.102V6.43h1.46a.48.48 0 0 0 .486-.486V4.97z"/></symbol><symbol viewBox="0 0 33 37" id="book" xmlns="http://www.w3.org/2000/svg"><path d="M21.962 27.195c1.539-1.202 4.703-4.42 5.802-8.082C25.26 16.055 14.724 3.012 12.292 0c-.249 2.859-2.78 8.875-7.17 10.886-2.018.977-4.03 1.586-4.794 1.802l15.025 18.059c1.698-.544 5.052-2.339 6.609-3.552zm10.15 1.135c-2.5 1.442-5.145 2.778-7.95 3.788-3.319 1.196-7.324 2.55-8.607 2.925V37l16.551-5.907.006-2.764zM0 13.26v5.428l14.924 18.264.012-5.741L0 13.26z"/><path d="M31.463 26.447c-1.93 1.502-4.378 3.023-7.028 4.336-2.508 1.247-8.028 2.927-8.88 3.183v.436c1.418-.416 5.013-1.487 8.166-2.676 3.5-1.32 8.505-4.438 8.505-4.438l-.763-.841zm-3.015-7.475l-.044.154c-1.096 3.87-4.325 7.197-6.06 8.552-1.625 1.267-5.002 3.074-6.789 3.65v.826c2.511-.776 6.02-2.427 7.968-3.786 3.344-2.339 6.611-5.583 8.62-8.55l.018.013C29.898 17.296 17.32 3.007 16.506 1.98c-.277.518-.526.865-.932 1.102C19.74 8.236 26.57 16.686 28.347 18.848l.101.124z"/><path d="M30.926 22.442s-4.456 4.618-7.047 6.429c-2.19 1.53-5.576 3.031-8.324 3.88v.572c.266-.08.707-.216 1.257-.39 2.025-.64 5.54-1.802 7.346-2.698 3.578-1.774 6.776-3.921 8.78-5.872l.062-.061-2.074-1.86z"/></symbol><symbol viewBox="0 0 50 35" id="car" xmlns="http://www.w3.org/2000/svg"><path d="M0 5.94c0-1.575.64-3.086 1.782-4.2A6.157 6.157 0 0 1 6.082 0h21.716c1.613 0 3.16.626 4.301 1.74a5.871 5.871 0 0 1 1.782 4.2v1.01h5.657c.77.014 1.52.231 2.174.629.654.397 1.184.96 1.536 1.629l3.71 6.594c.85.14 1.62.569 2.177 1.21.556.642.863 1.454.865 2.295v7.782c0 .788-.32 1.544-.89 2.1a3.078 3.078 0 0 1-2.151.87h-.244a5.972 5.972 0 0 1-2.117 3.553A6.234 6.234 0 0 1 40.638 35a6.231 6.231 0 0 1-3.947-1.427A5.97 5.97 0 0 1 34.61 30H17.093a5.97 5.97 0 0 1-2.1 3.562 6.233 6.233 0 0 1-3.953 1.408 6.233 6.233 0 0 1-3.953-1.408A5.97 5.97 0 0 1 4.987 30h-.73a4.31 4.31 0 0 1-3.01-1.218A4.11 4.11 0 0 1 0 25.842V5.94zm41.12 4.397a1.8 1.8 0 0 0-.658-.687 1.857 1.857 0 0 0-.924-.264h-5.596v6.357H44.16l-3.042-5.406zm-.427 22.217c.734 0 1.452-.212 2.062-.61a3.644 3.644 0 0 0 1.366-1.627c.281-.662.355-1.39.212-2.093a3.599 3.599 0 0 0-1.016-1.856 3.738 3.738 0 0 0-1.9-.991 3.794 3.794 0 0 0-2.144.206 3.693 3.693 0 0 0-1.665 1.335 3.564 3.564 0 0 0-.625 2.013c0 .96.39 1.883 1.087 2.562a3.757 3.757 0 0 0 2.623 1.061zm0-9.683a6.296 6.296 0 0 1 3.88 1.37 6.038 6.038 0 0 1 2.142 3.442h.244a.616.616 0 0 0 .43-.174.587.587 0 0 0 .178-.42v-7.782c0-.315-.128-.617-.356-.84a1.232 1.232 0 0 0-.86-.348H33.88v9.505h.79a5.98 5.98 0 0 1 2.148-3.42 6.236 6.236 0 0 1 3.874-1.333zm-29.622 9.683c.73 0 1.446-.21 2.055-.606a3.645 3.645 0 0 0 1.366-1.617c.283-.659.36-1.384.221-2.086a3.597 3.597 0 0 0-.998-1.856 3.737 3.737 0 0 0-1.884-1.005 3.794 3.794 0 0 0-2.139.182 3.697 3.697 0 0 0-1.677 1.309 3.55 3.55 0 0 0-.39 3.402c.183.446.455.852.8 1.195.345.343.757.615 1.211.801a3.77 3.77 0 0 0 1.435.281zm-8.638-6.712c0 .472.192.926.535 1.26.342.334.806.522 1.29.522h.79a5.977 5.977 0 0 1 2.132-3.456 6.235 6.235 0 0 1 3.89-1.356c1.419 0 2.793.48 3.89 1.356a5.978 5.978 0 0 1 2.133 3.456h14.355V5.94c0-.946-.385-1.852-1.07-2.52a3.694 3.694 0 0 0-2.58-1.045H6.083c-.968 0-1.897.376-2.581 1.044a3.523 3.523 0 0 0-1.069 2.52v19.902z"/></symbol><symbol viewBox="0 0 17 15" id="check" xmlns="http://www.w3.org/2000/svg"><path d="M1.5 6.942l6 6.485L16 1.953"/></symbol><symbol viewBox="0 0 18 18" id="close" xmlns="http://www.w3.org/2000/svg"><path fill-rule="evenodd" clip-rule="evenodd" d="M17.424 1.697l-16 16-.848-.849 16-16 .848.849z"/><path fill-rule="evenodd" clip-rule="evenodd" d="M1.424.848l16 16-.848.849-16-16 .848-.849z"/></symbol><symbol viewBox="0 0 18 18" id="confirm-square" xmlns="http://www.w3.org/2000/svg"><path d="M-17 1h-16v16h16z"/></symbol><symbol viewBox="0 0 25 25" id="diamond" xmlns="http://www.w3.org/2000/svg"><path d="M12.492 25c-.156 0-.312-.104-.416-.208L.109 7.09a.616.616 0 0 1-.052-.521c.104-.208.26-.312.468-.312h23.934c.208 0 .364.104.468.26a.4.4 0 0 1-.052.52L12.908 24.74c-.104.156-.26.26-.416.26zM1.513 7.299l10.979 16.243L23.471 7.3H1.514z"/><path d="M12.492 25a.507.507 0 0 1-.52-.416L7.809 6.882c-.052-.156 0-.312.105-.468.104-.104.26-.208.416-.208h8.325c.156 0 .312.052.416.208.104.104.156.312.104.416l-4.162 17.702c-.053.312-.26.468-.52.468zM9.006 7.3l3.486 14.89L15.978 7.3H9.006z"/><path d="M24.46 7.3H.524c-.208 0-.364-.104-.468-.313a.559.559 0 0 1 .052-.572L5.312.167a.59.59 0 0 1 .416-.156h13.528c.156 0 .312.052.416.208l5.203 6.248a.559.559 0 0 1 .052.572.546.546 0 0 1-.468.26zM1.617 6.258h21.697l-4.319-5.206H5.988l-4.37 5.206z"/><path d="M8.33 7.299c-.209 0-.417-.104-.469-.313L5.26.74c-.104-.26 0-.573.26-.677.26-.104.572 0 .676.26L8.798 6.57c.104.26 0 .573-.26.677-.052.052-.157.052-.209.052zm8.325 0c-.053 0-.157 0-.209-.052-.26-.104-.416-.417-.26-.677L18.788.323c.104-.26.416-.417.676-.26.26.103.417.416.26.676l-2.601 6.248c-.052.208-.26.312-.468.312z"/><path d="M16.759 7.299a.473.473 0 0 1-.416-.208l-3.85-5.31-3.851 5.258c-.156.208-.52.26-.728.104-.209-.156-.26-.52-.104-.73l4.266-5.83a.541.541 0 0 1 .832 0l4.267 5.883c.156.208.104.573-.104.729-.052.052-.208.104-.312.104z"/></symbol><symbol viewBox="0 0 32 27" id="double-arrow" xmlns="http://www.w3.org/2000/svg"><path d="M1 1l15 15L31 1"/><path d="M1 11l15 15 15-15"/></symbol><symbol viewBox="0 0 19 21" id="download" xmlns="http://www.w3.org/2000/svg"><path d="M6.529 0v8.788H2.61l6.529 6.277 6.528-6.277H11.75V0H6.53zM0 17.576v2.511h18.28v-2.51H0z"/></symbol><symbol viewBox="0 0 39 39" id="editor" xmlns="http://www.w3.org/2000/svg"><path d="M23.611 8.909l5.457 5.457 1.289-1.289L24.9 7.62l-1.29 1.289zm-1.18 1.181L11.714 20.807l-1.302 6.615 6.639-1.037 10.838-10.838-5.458-5.457z"/><path d="M19.5 0C8.73 0 0 8.73 0 19.5S8.73 39 19.5 39 39 30.27 39 19.5 30.27 0 19.5 0zm12.628 13.668l-14.09 14.089a.83.83 0 0 1-.461.234l-8.085 1.263a.836.836 0 0 1-.948-.986l1.582-8.034a.837.837 0 0 1 .229-.429L24.31 5.85a.834.834 0 0 1 1.18 0l6.638 6.638a.835.835 0 0 1 0 1.18z"/></symbol><symbol viewBox="0 0 13 15" id="file" xmlns="http://www.w3.org/2000/svg"><path d="M5.015 5.714a.735.735 0 0 1-.036-1.005.672.672 0 0 1 1.005 0l3.398 3.525c.804.834.804 2.18 0 3.014a2 2 0 0 1-2.905 0l-2.43-2.52-3.143-3.26C-.3 4.216-.3 2.187.904.937a3.01 3.01 0 0 1 4.367 0l3.125 3.279 3.398 3.506c1.608 1.667 1.608 4.359 0 6.026a4 4 0 0 1-5.81 0L1.617 9.22a.735.735 0 0 1-.037-1.004.672.672 0 0 1 .969-.037l.036.037 4.367 4.53a2.656 2.656 0 0 0 3.874-.076 2.915 2.915 0 0 0 0-3.942L7.427 5.202l-3.142-3.26a1.667 1.667 0 0 0-2.43 0 1.82 1.82 0 0 0 0 2.521l3.16 3.26 2.412 2.52a.672.672 0 0 0 .969-.038.745.745 0 0 0 0-.966l-3.38-3.525z"/></symbol><symbol viewBox="0 0 21 20" id="filter-icon" xmlns="http://www.w3.org/2000/svg"><path d="M4.714 16.286H0V18h4.714v-1.714zM9.43 14.57H6a.863.863 0 0 0-.857.858v3.428c0 .469.388.857.857.857h3.429a.863.863 0 0 0 .857-.857V15.43a.863.863 0 0 0-.857-.858zm2.14-5.14H0v1.714h11.571V9.429zM3 2.57H0v1.715h3V2.57zm17.571 13.715h-9.857V18h9.857v-1.714zM7.714.857H4.286a.863.863 0 0 0-.857.857v3.429c0 .469.388.857.857.857h3.428a.863.863 0 0 0 .857-.857V1.714a.863.863 0 0 0-.857-.857zm8.572 6.857h-3.429a.863.863 0 0 0-.857.857V12c0 .469.388.857.857.857h3.429a.863.863 0 0 0 .857-.857V8.571a.863.863 0 0 0-.857-.857zM20.57 9.43h-3v1.714h3V9.429zm0-6.858H9v1.715h11.571V2.57z"/></symbol><symbol viewBox="0 0 32 25" id="home" xmlns="http://www.w3.org/2000/svg"><path d="M26.714 14.679c0-.038 0-.076-.019-.114L15.785 5.57 4.877 14.565c0 .038-.019.076-.019.114v9.107c0 .664.55 1.214 1.214 1.214h7.286v-7.286h4.857V25H25.5c.664 0 1.214-.55 1.214-1.214v-9.107zm4.231-1.31a.622.622 0 0 0-.076-.853l-4.155-3.454v-7.74a.6.6 0 0 0-.607-.608h-3.643a.6.6 0 0 0-.607.607v3.7l-4.63-3.87c-.796-.664-2.086-.664-2.883 0L.702 12.516a.622.622 0 0 0-.076.853l1.176 1.404a.63.63 0 0 0 .399.21.648.648 0 0 0 .455-.134l13.13-10.947 13.13 10.947a.595.595 0 0 0 .398.133h.056a.63.63 0 0 0 .399-.209l1.176-1.404z"/></symbol><symbol viewBox="0 0 18 15" id="logout" xmlns="http://www.w3.org/2000/svg"><path d="M7.143 13.929c0-.413-.435-.358-.714-.358H3.214a1.79 1.79 0 0 1-1.785-1.785V3.929a1.79 1.79 0 0 1 1.785-1.786h3.572c.502 0 .357-.76.357-1.072a.367.367 0 0 0-.357-.357H3.214A3.215 3.215 0 0 0 0 3.93v7.857A3.215 3.215 0 0 0 3.214 15h3.572c.502 0 .357-.759.357-1.071zM17.5 7.857a.71.71 0 0 0-.212-.502l-6.072-6.072a.71.71 0 0 0-.502-.212.72.72 0 0 0-.714.715V5H5a.72.72 0 0 0-.714.714V10c0 .39.323.714.714.714h5v3.215c0 .39.324.714.714.714a.71.71 0 0 0 .502-.212l6.072-6.072a.71.71 0 0 0 .212-.502z"/></symbol><symbol viewBox="0 0 12 8" id="mail" xmlns="http://www.w3.org/2000/svg"><path d="M0 1.678v5.405l3.274-2.705L0 1.678zm5.066 3.205a.728.728 0 0 0 .89 0l.76-.624L11.01.717A.87.87 0 0 0 10.152 0H.87a.87.87 0 0 0-.857.717l4.331 3.57.723.596zm2.683-.505l3.274 2.705V1.678l-3.274 2.7z"/><path d="M6.543 5.372l-.588.482a.728.728 0 0 1-.89 0l-.755-.623-.44-.365L.325 7.79a.88.88 0 0 0 .543.19h9.283a.884.884 0 0 0 .543-.19L7.155 4.87l-.612.502z"/></symbol><symbol viewBox="0 0 56 56" id="manager-first" xmlns="http://www.w3.org/2000/svg"><path fill-rule="evenodd" clip-rule="evenodd" d="M2.5 28c0 14.083 11.416 25.5 25.5 25.5S53.5 42.083 53.5 28 42.084 2.5 28 2.5 2.5 13.917 2.5 28zM0 28c0 15.464 12.536 28 28 28s28-12.536 28-28S43.464 0 28 0 0 12.536 0 28zm29.65 9.173h-1.717V22.265l-2.813 3.111-1.12-1.12L27.933 20h1.717v17.173z"/></symbol><symbol viewBox="0 0 56 56" id="manager-two" xmlns="http://www.w3.org/2000/svg"><path fill-rule="evenodd" clip-rule="evenodd" d="M2.5 28c0 14.083 11.416 25.5 25.5 25.5S53.5 42.083 53.5 28 42.084 2.5 28 2.5 2.5 13.917 2.5 28zM0 28c0 15.464 12.536 28 28 28s28-12.536 28-28S43.464 0 28 0 0 12.536 0 28zm33.324 9.422H22v-1.518c6.446-5.426 9.259-8.487 9.259-11.524 0-2.389-1.742-2.862-3.56-2.862-2.439 0-3.708.846-3.857 2.837h-1.693C22.373 21.07 24.54 20 27.65 20c2.987 0 5.302.996 5.302 4.181 0 3.89-3.492 7.11-6.63 10.002a85.326 85.326 0 0 0-1.832 1.721h8.835v1.518z"/></symbol><symbol viewBox="0 0 40 60" id="medal" xmlns="http://www.w3.org/2000/svg"><path d="M31.083 36.394l.23-4.618-4.463-1.21-2.53-3.872L20 28.341l-4.32-1.647-2.53 3.873-4.464 1.21.23 4.617-2.9 3.603 2.9 3.602-.23 4.62 4.464 1.209 2.53 3.87L20 51.652l4.322 1.647 2.528-3.871 4.464-1.21-.23-4.62 2.901-3.601-2.901-3.603zm-7.43 5.597l1.316 5.652L20 44.646l-4.967 2.997 1.314-5.652-4.386-3.798 5.781-.497L20 32.35l2.258 5.345 5.78.497-4.384 3.798z"/><path d="M20 19.994c-11.046 0-20 8.955-20 20.003C0 51.044 8.954 60 20 60c11.045 0 20-8.956 20-20.003 0-11.048-8.955-20.003-20-20.003zm13.722 29.974l-5.413 1.465-3.069 4.696L20 54.133l-5.24 1.996-3.069-4.696-5.413-1.465.278-5.603-3.517-4.368 3.517-4.368-.278-5.602 5.413-1.466 3.069-4.698L20 25.86l5.24-1.997 3.069 4.698 5.413 1.466-.281 5.602 3.52 4.368-3.52 4.368.28 5.602zM24.975 18L15.251 0H3.26l9.724 18h11.992zM36.74 0H24.748l-3.792 7.02 6.406 10.34L36.741 0z"/></symbol><symbol viewBox="0 0 27 17" id="menu" xmlns="http://www.w3.org/2000/svg"><path d="M0 0h27v3H0zm0 7h27v3H0zm0 7h27v3H0z"/></symbol><symbol viewBox="0 0 16 21" id="pdf-file" xmlns="http://www.w3.org/2000/svg"><path fill-rule="evenodd" clip-rule="evenodd" d="M10.116 6.533a.701.701 0 0 1-.704-.698V0H.862A.859.859 0 0 0 0 .856v19.288A.86.86 0 0 0 .866 21h14.268a.863.863 0 0 0 .866-.858V6.533h-5.884zM16 5.6h-5.175a.47.47 0 0 1-.472-.468V0L16 5.6z"/><path d="M4.187 16c-.271 0-.525-.1-.736-.296-.546-.508-.6-1.136-.142-1.677.466-.552 1.539-1.044 2.805-1.403a15.524 15.524 0 0 0 .814-1.985c-.92-1.426-1.497-2.9-1.272-3.747.162-.612.683-.935 1.43-.887h.01c.376.031 1.04.228 1.256 1.206.178.801.004 2.016-.377 3.288.38.551.809 1.092 1.253 1.565 1.343-.11 2.554-.021 3.197.343.55.311.718.826.449 1.378a.436.436 0 0 1-.038.063c-.472.659-1.251.828-2.138.464-.588-.241-1.226-.71-1.845-1.307a17.11 17.11 0 0 0-2.044.354c-.63 1.194-1.361 2.156-2.027 2.49a1.329 1.329 0 0 1-.595.151zm1.303-2.25c-.65.24-1.165.52-1.426.829-.138.163-.164.28.067.493.037.035.061.057.195-.01.327-.164.742-.643 1.164-1.313zm4.655-.832c.322.254.64.453.94.576.608.25.825.03.929-.11.053-.12.029-.148-.088-.214-.333-.188-.985-.265-1.78-.252zm-2.543-1.323c-.095.25-.196.5-.303.744.262-.053.528-.1.793-.141a13.788 13.788 0 0 1-.49-.603zm-.666-4.702c-.292 0-.323.117-.348.213-.122.461.172 1.322.692 2.27.182-.82.234-1.522.131-1.985-.103-.463-.304-.487-.395-.495a1.122 1.122 0 0 0-.08-.003z"/></symbol><symbol viewBox="0 0 12 11" id="phone" xmlns="http://www.w3.org/2000/svg"><path d="M2.08.003a4.148 4.148 0 0 0-.844.187c-.262.15-.537.45-.83.998-.13.22-.23.463-.297.701-.001.004.002.01 0 .016a2.723 2.723 0 0 0-.078.342c-.018.13-.031.26-.031.39 0 .15.016.256.031.405.021.15.047.302.094.452.047.15.083.293.11.343.002.007-.002.025 0 .031.03.076.097.222.172.42.002.007-.003.01 0 .016.073.19.125.326.14.374.183.499.391.957.641 1.356.003.004-.002.012 0 .015.101.16.225.319.344.484.003.003-.002.012 0 .015a14.443 14.443 0 0 0 1.345 1.558c.003.003-.003.013 0 .016.357.349.702.66 1.047.935.173.137.347.271.516.39.17.121.334.24.5.342.202.125.428.233.657.343.133.065.265.117.407.171.107.044.2.1.313.14.047.016.166.063.375.14.126.048.185.067.266.094.052.018.14.05.172.063.04.013.126.029.187.046.063.026.103.053.188.078.05 0 .094.008.14.016.072.02.14.049.204.062.028.006.066.011.094.016.005.002.01.013.015.015h.407c.24 0 .476-.04.719-.109a3.31 3.31 0 0 0 .735-.28c.263-.146.482-.3.64-.437.077-.065.136-.135.189-.202.002-.004-.003-.012 0-.016.048-.063.099-.11.125-.171.003-.008-.004-.023 0-.031.014-.025.032-.074.046-.11.01-.031.022-.058.032-.093.03-.092.065-.188.093-.296.026-.125.034-.224.047-.312v-.015c.012-.08.032-.164.032-.234 0-.092-.018-.125-.032-.171V8.48c-.003-.005-.025-.024-.03-.03a.622.622 0 0 0-.126-.11c-.006-.004-.01-.011-.016-.016-.018-.012-.056-.032-.078-.046a4.824 4.824 0 0 0-.344-.203c-.099-.05-.24-.15-.422-.25-.182-.099-.35-.149-.5-.248-.146-.1-.276-.15-.407-.25-.02 0-.093-.056-.203-.156-.11-.05-.203-.09-.281-.14-.073-.05-.146-.047-.22-.047-.103 0-.234.038-.39.187-.157.15-.292.35-.422.499-.13.2-.276.35-.422.499-.147.15-.266.202-.36.202-.047 0-.115.003-.188-.046-.067 0-.12-.047-.156-.047-.037 0-.1-.06-.188-.11s-.13-.093-.14-.093c-.715-.399-1.334-.841-1.845-1.34-.511-.499-.964-1.156-1.36-1.854a.592.592 0 0 1-.094-.14c-.052-.1-.089-.153-.11-.203-.015 0-.036-.056-.062-.156a.275.275 0 0 1-.032-.14c0-.1.073-.256.22-.405.15-.15.312-.256.484-.405.177-.1.339-.24.485-.39.15-.2.219-.305.219-.405a.6.6 0 0 0-.047-.25c-.037-.05-.094-.15-.172-.249-.073-.15-.125-.202-.141-.202a15.53 15.53 0 0 0-.235-.437c-.083-.15-.182-.299-.281-.498-.1-.15-.177-.306-.235-.406C2.71.246 2.58.053 2.486.003h-.172c-.07 0-.142-.006-.235 0z"/></symbol><symbol viewBox="0 0 23 21" id="print" xmlns="http://www.w3.org/2000/svg"><path fill-rule="evenodd" clip-rule="evenodd" d="M18.281 4.26v2.603h1.714v-1.86a.753.753 0 0 0-.762-.742h-.952zM4.19 13.932v1.488h14.472v-1.488H4.189z"/><path fill-rule="evenodd" clip-rule="evenodd" d="M1.523 7.609C.682 7.609 0 8.275 0 9.097v8.183c0 .41.341.744.762.744h2.666v-4.092c0-.41.34-.744.761-.744h14.473c.42 0 .762.333.762.744v4.092h2.664c.42 0 .762-.333.762-.744V9.097c0-.822-.682-1.488-1.524-1.488H1.523zM17.14 9.097a.39.39 0 0 1 .269.109.372.372 0 0 1 .111.263.37.37 0 0 1-.111.263.386.386 0 0 1-.539 0 .368.368 0 0 1 .124-.607.39.39 0 0 1 .146-.028zm2.285 0a.389.389 0 0 1 .27.109.372.372 0 0 1 .11.263.37.37 0 0 1-.111.263.386.386 0 0 1-.539 0 .367.367 0 0 1 .124-.607.389.389 0 0 1 .146-.028zm1.523 0a.389.389 0 0 1 .27.109.37.37 0 0 1 .111.263.37.37 0 0 1-.111.263.386.386 0 0 1-.54 0 .368.368 0 0 1 .124-.607.39.39 0 0 1 .146-.028z"/><path fill-rule="evenodd" clip-rule="evenodd" d="M5.14 16.164l-2.094 4.464h16.758l-2.095-4.464H5.14zM5.332.913v5.952H17.52V.913H5.332zM4.57 4.26v2.603H2.856v-1.86c0-.41.341-.742.762-.742h.952z"/></symbol><symbol viewBox="0 0 23 18" id="refresh" xmlns="http://www.w3.org/2000/svg"><path d="M12.752 16.523c-2.503.363-5.083-.436-6.871-2.131-1.507-1.429-2.35-3.342-2.35-5.376 0-1.816.664-3.536 1.89-4.916l.562 3.245c.077.387.434.63.818.557.383-.073.664-.436.587-.823L6.571 2.21a.593.593 0 0 0-.281-.41l-.026-.025s-.025 0-.025-.024a.752.752 0 0 0-.511-.097L.619 2.55c-.408.073-.664.436-.613.8a.724.724 0 0 0 .843.556l3.372-.605C2.84 4.899 2.075 6.885 2.075 8.99a8.807 8.807 0 0 0 2.784 6.37C6.647 17.054 9.074 18 11.577 18c.46 0 .92-.024 1.405-.097a.69.69 0 0 0 .613-.775c-.077-.412-.435-.678-.843-.605zm10.242-1.816a.724.724 0 0 0-.843-.557l-3.372.605a8.6 8.6 0 0 0 2.222-5.788c0-2.397-.996-4.649-2.784-6.344-2.12-2.01-5.134-2.954-8.096-2.518a.69.69 0 0 0-.613.774c.05.388.434.63.817.582 2.503-.364 5.083.435 6.87 2.13 1.508 1.43 2.35 3.342 2.35 5.376 0 1.865-.715 3.633-1.992 5.013l-.562-3.245a.693.693 0 0 0-.817-.557c-.383.073-.664.436-.588.824l.843 4.867c.026.17.128.315.281.412l.026.024s.025 0 .025.024a.753.753 0 0 0 .511.097l5.109-.896a.735.735 0 0 0 .613-.823z"/></symbol><symbol viewBox="0 0 15 16" id="search" xmlns="http://www.w3.org/2000/svg"><path d="M10.286 6.714c0 2.206-1.795 4-4 4-2.206 0-4-1.794-4-4 0-2.205 1.794-4 4-4 2.205 0 4 1.795 4 4zm4.571 7.429a1.15 1.15 0 0 0-.33-.804l-3.063-3.062A6.284 6.284 0 0 0 6.285.429 6.284 6.284 0 0 0 0 6.714a6.284 6.284 0 0 0 9.848 5.179l3.063 3.053c.205.215.5.34.803.34a1.15 1.15 0 0 0 1.143-1.143z"/></symbol><symbol viewBox="0 0 10 5" id="select-arrow" xmlns="http://www.w3.org/2000/svg"><path fill-rule="evenodd" clip-rule="evenodd" d="M0 0l5 5 5-5H0z"/></symbol><symbol viewBox="0 0 21 21" id="share" xmlns="http://www.w3.org/2000/svg"><path d="M3.63 14.501a3.66 3.66 0 0 0 2.516-.994l7.191 3.512c-.018.143-.03.288-.03.436 0 1.958 1.625 3.545 3.629 3.545s3.629-1.587 3.629-3.545c0-1.957-1.625-3.545-3.63-3.545a3.66 3.66 0 0 0-2.516.995l-7.191-3.512c.018-.143.03-.288.03-.437 0-.148-.012-.293-.03-.436l7.19-3.512a3.66 3.66 0 0 0 2.518.995c2.004 0 3.629-1.587 3.629-3.545S18.94.913 16.935.913c-2.003 0-3.628 1.587-3.628 3.545 0 .148.012.293.03.437L6.146 8.406a3.66 3.66 0 0 0-2.517-.994C1.625 7.412 0 8.999 0 10.956c0 1.958 1.625 3.545 3.63 3.545z"/></symbol><symbol viewBox="0 0 59 59" id="shunk-12" xmlns="http://www.w3.org/2000/svg"><path fill-rule="evenodd" clip-rule="evenodd" d="M2.489 29.244c0-14.776 11.979-26.755 26.756-26.755a1.244 1.244 0 0 0 0-2.489C13.093 0 0 13.093 0 29.244 0 45.396 13.093 58.49 29.245 58.49c16.15 0 29.244-13.093 29.244-29.245a29.131 29.131 0 0 0-6.906-18.875 1.245 1.245 0 0 0-1.9 1.607A26.642 26.642 0 0 1 56 29.244C56 44.021 44.021 56 29.245 56 14.468 56 2.489 44.021 2.489 29.244zm37.39 9.69H28.555v-1.519c6.446-5.426 9.258-8.487 9.258-11.523 0-2.39-1.742-2.863-3.559-2.863-2.439 0-3.708.846-3.857 2.838h-1.693c.224-3.286 2.39-4.356 5.5-4.356 2.987 0 5.302.996 5.302 4.181 0 3.891-3.493 7.11-6.63 10.002a85.544 85.544 0 0 0-1.832 1.721h8.835v1.518zm-15.19 0h-1.716v-14.91l-2.813 3.112-1.12-1.12 3.933-4.256h1.717v17.173z"/></symbol><symbol viewBox="0 0 59 59" id="shunk-5offer" xmlns="http://www.w3.org/2000/svg"><path fill-rule="evenodd" clip-rule="evenodd" d="M2.489 29.244c0-14.776 11.979-26.755 26.756-26.755a1.244 1.244 0 0 0 0-2.489C13.093 0 0 13.093 0 29.244 0 45.396 13.093 58.49 29.245 58.49c16.15 0 29.244-13.093 29.244-29.245a29.131 29.131 0 0 0-6.906-18.875 1.245 1.245 0 0 0-1.9 1.607A26.642 26.642 0 0 1 56 29.244C56 44.021 44.021 56 29.245 56 14.468 56 2.489 44.021 2.489 29.244zm23.202.132c.872-.97 2.091-1.643 3.933-1.643 3.161 0 5.426 1.967 5.426 5.526 0 3.41-2.066 5.923-6.322 5.923-2.788 0-5.102-1.07-5.301-4.355h1.692c.175 2.066 1.668 2.837 3.659 2.837 3.186 0 4.58-1.941 4.58-4.38 0-2.738-1.768-4.032-3.983-4.032-1.842 0-3.385.92-3.957 2.215h-1.543l.97-9.707h9.085v1.518h-7.64l-.599 6.098z"/></symbol><symbol viewBox="0 0 59 59" id="shunk-5step" xmlns="http://www.w3.org/2000/svg"><path fill-rule="evenodd" clip-rule="evenodd" d="M2.489 29.244c0-14.776 11.979-26.755 26.756-26.755a1.244 1.244 0 0 0 0-2.489C13.093 0 0 13.093 0 29.244 0 45.396 13.093 58.49 29.245 58.49c16.15 0 29.244-13.093 29.244-29.245a29.131 29.131 0 0 0-6.906-18.875 1.245 1.245 0 0 0-1.9 1.607A26.642 26.642 0 0 1 56 29.244C56 44.021 44.021 56 29.245 56 14.468 56 2.489 44.021 2.489 29.244zm23.025.132c.871-.97 2.09-1.643 3.932-1.643 3.161 0 5.426 1.967 5.426 5.526 0 3.41-2.066 5.923-6.322 5.923-2.787 0-5.102-1.07-5.301-4.355h1.692c.175 2.066 1.668 2.837 3.66 2.837 3.185 0 4.579-1.941 4.579-4.38 0-2.738-1.767-4.032-3.983-4.032-1.841 0-3.384.92-3.957 2.215h-1.543l.97-9.707h9.085v1.518h-7.64l-.598 6.098z"/></symbol><symbol viewBox="0 0 47 37" id="site" xmlns="http://www.w3.org/2000/svg"><path fill-rule="evenodd" clip-rule="evenodd" d="M40.388 0H7.248c-1.705 0-3.34.667-4.547 1.854A6.28 6.28 0 0 0 .818 6.329v24.342c0 .831.166 1.654.49 2.422A6.33 6.33 0 0 0 2.7 35.146a6.441 6.441 0 0 0 2.086 1.372c.78.318 1.617.482 2.461.482h33.14c.844 0 1.68-.164 2.46-.482a6.441 6.441 0 0 0 2.087-1.371 6.328 6.328 0 0 0 1.394-2.054c.323-.768.49-1.591.49-2.422V6.329a6.28 6.28 0 0 0-1.884-4.475A6.484 6.484 0 0 0 40.388 0zm3.462 30.67a3.38 3.38 0 0 1-1.014 2.41 3.49 3.49 0 0 1-2.448 1H7.248c-.918 0-1.799-.36-2.448-1a3.38 3.38 0 0 1-1.014-2.41V13.632H43.85v17.04zm0-19.96H3.786V6.33A3.38 3.38 0 0 1 4.8 3.92c.65-.64 1.53-1 2.448-1h33.14c.918 0 1.799.36 2.448 1a3.38 3.38 0 0 1 1.014 2.41v4.38zM14.668 9.25c1.366 0 2.473-1.09 2.473-2.434s-1.107-2.434-2.473-2.434c-1.366 0-2.473 1.09-2.473 2.434 0 1.345 1.107 2.434 2.473 2.434zm8.903-2.434c0 1.345-1.107 2.434-2.473 2.434-1.366 0-2.473-1.09-2.473-2.434s1.107-2.434 2.473-2.434c1.366 0 2.473 1.09 2.473 2.434zM8.237 9.25c1.366 0 2.473-1.09 2.473-2.434S9.603 4.382 8.237 4.382c-1.366 0-2.473 1.09-2.473 2.434 0 1.345 1.107 2.434 2.473 2.434zm18.994 22.443l-3.71-4.333-2.72 4.576-4.848-16.6 15.73 7.74-5.145 1.801 3.71 4.333-3.017 2.483z"/></symbol><symbol viewBox="0 0 9 14" id="small-arrow" xmlns="http://www.w3.org/2000/svg"><path d="M1 13l7-6-7-6"/></symbol><symbol viewBox="0 0 179 25" id="stars" xmlns="http://www.w3.org/2000/svg"><path d="M21.364 25a.773.773 0 0 0 .593-.266.724.724 0 0 0 .156-.615l-1.735-8.206 6.375-5.646a.71.71 0 0 0 .21-.767.731.731 0 0 0-.24-.342.766.766 0 0 0-.394-.16l-8.576-.935L14.19.434a.738.738 0 0 0-.278-.316.77.77 0 0 0-.822 0 .738.738 0 0 0-.278.316L9.247 8.063.67 8.998a.766.766 0 0 0-.393.16.731.731 0 0 0-.241.341.711.711 0 0 0 .21.768l6.375 5.646-1.735 8.206a.711.711 0 0 0 .035.411.734.734 0 0 0 .258.328.768.768 0 0 0 .814.047l7.506-4.142 7.506 4.142c.11.06.232.093.358.095zm-1.06-2.168l-6.432-3.546a.772.772 0 0 0-.744 0l-6.431 3.546L8.186 15.8a.711.711 0 0 0-.233-.687L2.49 10.271l7.353-.8a.767.767 0 0 0 .357-.135.737.737 0 0 0 .243-.289L13.5 2.512l3.057 6.535a.737.737 0 0 0 .243.29.767.767 0 0 0 .357.135l7.353.8-5.463 4.841a.713.713 0 0 0-.233.687l1.49 7.032z"/><path d="M20.303 22.832l-6.43-3.546a.772.772 0 0 0-.745 0l-6.431 3.546L8.186 15.8a.711.711 0 0 0-.233-.687L2.49 10.271l7.353-.8a.767.767 0 0 0 .357-.135.737.737 0 0 0 .243-.289L13.5 2.512l3.057 6.535a.737.737 0 0 0 .243.29.767.767 0 0 0 .357.135l7.353.8-5.463 4.841a.713.713 0 0 0-.233.687l1.49 7.032zM59.364 25a.773.773 0 0 0 .593-.266.724.724 0 0 0 .156-.615l-1.735-8.206 6.374-5.646a.71.71 0 0 0 .21-.767.731.731 0 0 0-.24-.342.766.766 0 0 0-.393-.16l-8.576-.935L52.19.434a.738.738 0 0 0-.278-.316.77.77 0 0 0-.822 0 .738.738 0 0 0-.278.316l-3.564 7.629-8.576.935a.766.766 0 0 0-.393.16.731.731 0 0 0-.241.341.71.71 0 0 0 .21.768l6.376 5.646-1.736 8.206a.711.711 0 0 0 .035.411.734.734 0 0 0 .258.328.768.768 0 0 0 .814.047l7.506-4.142 7.506 4.142c.11.06.232.093.358.095zm-1.06-2.168l-6.432-3.546a.772.772 0 0 0-.744 0l-6.431 3.546 1.489-7.032a.713.713 0 0 0-.233-.687l-5.463-4.842 7.352-.8a.767.767 0 0 0 .358-.135.737.737 0 0 0 .243-.289L51.5 2.512l3.057 6.535a.737.737 0 0 0 .243.29.767.767 0 0 0 .358.135l7.352.8-5.463 4.841a.713.713 0 0 0-.233.687l1.49 7.032z"/><path d="M58.303 22.832l-6.43-3.546a.772.772 0 0 0-.745 0l-6.431 3.546 1.489-7.032a.713.713 0 0 0-.233-.687l-5.463-4.842 7.352-.8a.767.767 0 0 0 .358-.135.737.737 0 0 0 .243-.289L51.5 2.512l3.057 6.535a.737.737 0 0 0 .243.29.767.767 0 0 0 .358.135l7.352.8-5.463 4.841a.713.713 0 0 0-.233.687l1.49 7.032zM97.364 25a.773.773 0 0 0 .593-.266.724.724 0 0 0 .156-.615l-1.735-8.206 6.375-5.646a.712.712 0 0 0 .21-.767.723.723 0 0 0-.241-.342.764.764 0 0 0-.393-.16l-8.576-.935L90.19.434a.738.738 0 0 0-.278-.316.77.77 0 0 0-.822 0 .738.738 0 0 0-.278.316l-3.564 7.629-8.576.935a.766.766 0 0 0-.394.16.731.731 0 0 0-.24.341.71.71 0 0 0 .21.768l6.376 5.646-1.736 8.206a.711.711 0 0 0 .035.411.734.734 0 0 0 .258.328.767.767 0 0 0 .814.047l7.506-4.142 7.506 4.142c.11.06.232.093.358.095zm-1.06-2.168l-6.432-3.546a.772.772 0 0 0-.744 0l-6.431 3.546 1.489-7.032a.713.713 0 0 0-.233-.687l-5.463-4.842 7.353-.8a.767.767 0 0 0 .357-.135.737.737 0 0 0 .243-.289L89.5 2.512l3.057 6.535a.737.737 0 0 0 .243.29.767.767 0 0 0 .358.135l7.352.8-5.463 4.841a.713.713 0 0 0-.233.687l1.49 7.032zM135.364 25a.768.768 0 0 0 .593-.266.713.713 0 0 0 .156-.615l-1.735-8.206 6.375-5.646a.712.712 0 0 0 .21-.767.723.723 0 0 0-.241-.342.764.764 0 0 0-.393-.16l-8.576-.935-3.564-7.629a.744.744 0 0 0-.278-.316.773.773 0 0 0-.822 0 .744.744 0 0 0-.278.316l-3.564 7.629-8.576.935a.764.764 0 0 0-.393.16.723.723 0 0 0-.253.755.737.737 0 0 0 .222.354l6.375 5.646-1.735 8.206a.706.706 0 0 0 .035.411.731.731 0 0 0 .258.328.77.77 0 0 0 .814.047l7.506-4.142 7.506 4.142c.109.06.232.093.358.095zm-1.061-2.168l-6.431-3.546a.768.768 0 0 0-.744 0l-6.431 3.546 1.489-7.032a.707.707 0 0 0-.023-.373.73.73 0 0 0-.21-.314l-5.463-4.842 7.353-.8a.765.765 0 0 0 .357-.135.741.741 0 0 0 .243-.289l3.057-6.535 3.057 6.535a.741.741 0 0 0 .243.29.765.765 0 0 0 .357.135l7.353.8-5.463 4.841a.73.73 0 0 0-.21.314.707.707 0 0 0-.023.373l1.489 7.032zM173.364 25a.768.768 0 0 0 .593-.266.713.713 0 0 0 .156-.615l-1.735-8.206 6.375-5.646a.712.712 0 0 0 .21-.767.723.723 0 0 0-.241-.342.764.764 0 0 0-.393-.16l-8.576-.935-3.564-7.629a.744.744 0 0 0-.278-.316.773.773 0 0 0-.822 0 .744.744 0 0 0-.278.316l-3.564 7.629-8.576.935a.764.764 0 0 0-.393.16.723.723 0 0 0-.253.755.737.737 0 0 0 .222.354l6.375 5.646-1.735 8.206a.706.706 0 0 0 .035.411.731.731 0 0 0 .258.328.77.77 0 0 0 .814.047l7.506-4.142 7.506 4.142c.109.06.232.093.358.095zm-1.061-2.168l-6.431-3.546a.768.768 0 0 0-.744 0l-6.431 3.546 1.489-7.032a.707.707 0 0 0-.023-.373.73.73 0 0 0-.21-.314l-5.463-4.842 7.353-.8a.765.765 0 0 0 .357-.135.741.741 0 0 0 .243-.289l3.057-6.535 3.057 6.535a.741.741 0 0 0 .243.29.765.765 0 0 0 .357.135l7.353.8-5.463 4.841a.73.73 0 0 0-.21.314.707.707 0 0 0-.023.373l1.489 7.032z"/></symbol><symbol viewBox="0 0 40 39" id="studio" xmlns="http://www.w3.org/2000/svg"><path fill-rule="evenodd" clip-rule="evenodd" d="M37.524 19.5c0 9.502-7.703 17.206-17.206 17.206-9.502 0-17.206-7.704-17.206-17.206 0-9.502 7.704-17.206 17.206-17.206 9.503 0 17.206 7.704 17.206 17.206zm2.294 0c0 10.77-8.73 19.5-19.5 19.5S.818 30.27.818 19.5 9.548 0 20.318 0s19.5 8.73 19.5 19.5zM28.921 9.177v5.063l-5.585.027V30.97h-5.855V14.293h-5.766V9.177H28.92z"/></symbol><symbol viewBox="0 0 15 21" id="to-first-arrow" xmlns="http://www.w3.org/2000/svg"><path d="M13.057.368a1.14 1.14 0 0 1 1.61 0 1.133 1.133 0 0 1 0 1.606L6.15 10.468l8.52 8.563a1.133 1.133 0 0 1-.808 1.934c-.293 0-.585-.112-.808-.336l-9.318-9.365a1.132 1.132 0 0 1 .003-1.602L13.057.368zM1.858 0c.629 0 1.138.508 1.138 1.135v18.73c0 .627-.51 1.135-1.138 1.135A1.137 1.137 0 0 1 .72 19.865V1.135C.72.508 1.23 0 1.858 0z"/></symbol><symbol viewBox="0 0 15 21" id="to-last-arrow" xmlns="http://www.w3.org/2000/svg"><path d="M1.943.368a1.14 1.14 0 0 0-1.61 0 1.133 1.133 0 0 0 0 1.606l8.517 8.494L.33 19.03a1.133 1.133 0 0 0 .808 1.934c.293 0 .585-.112.808-.336l9.318-9.365c.442-.443.44-1.16-.003-1.602L1.943.368zM13.142 0c-.628 0-1.138.508-1.138 1.135v18.73c0 .627.51 1.135 1.138 1.135.629 0 1.138-.508 1.138-1.135V1.135C14.28.508 13.77 0 13.142 0z"/></symbol><symbol viewBox="0 0 22 22" id="view-square" xmlns="http://www.w3.org/2000/svg"><path d="M0 12h10v10H0zm12 0h10v10H12zm0-12h10v10H12zM0 0h10v10H0z"/></symbol><symbol viewBox="0 0 22 22" id="view-table" xmlns="http://www.w3.org/2000/svg"><path d="M0 0h6v6H0zm8 0h14v6H8zM0 8h6v6H0zm8 0h14v6H8zm-8 8h6v6H0zm8 0h14v6H8z"/></symbol></svg>