<svg width="15" height="18" viewBox="0 0 15 18" fill="none" xmlns="http://www.w3.org/2000/svg">
<path d="M14.2857 15.471C14.2857 12.5357 13.5603 9.14286 10.6362 9.14286C9.73214 10.0246 8.50446 10.5714 7.14286 10.5714C5.78125 10.5714 4.55357 10.0246 3.64955 9.14286C0.725446 9.14286 0 12.5357 0 15.471C0 17.1004 1.07143 18.4286 2.37723 18.4286H11.9085C13.2143 18.4286 14.2857 17.1004 14.2857 15.471ZM11.4286 5.57143C11.4286 3.20536 9.50893 1.28571 7.14286 1.28571C4.77679 1.28571 2.85714 3.20536 2.85714 5.57143C2.85714 7.9375 4.77679 9.85714 7.14286 9.85714C9.50893 9.85714 11.4286 7.9375 11.4286 5.57143Z" transform="translate(0 -1)" fill="#C4C4C4"/>
</svg>
