<svg width="18" height="37" viewBox="0 0 18 37" fill="none" xmlns="http://www.w3.org/2000/svg">
<path d="M16.0478 -1.2207e-06C16.0168 -1.2207e-06 15.9848 0.000996582 15.9538 0.00399658V0.00201294C15.6918 0.0250129 15.4518 0.150005 15.2818 0.350005L0.373827 17.246C0.287827 17.32 0.215861 17.408 0.158861 17.506C0.156861 17.508 0.156833 17.51 0.154833 17.512C-0.140167 17.979 -0.00119302 18.596 0.465807 18.892C0.473807 18.897 0.481817 18.902 0.488817 18.907L15.2818 35.673C15.6278 36.103 16.2589 36.171 16.6879 35.824C17.1169 35.477 17.1858 34.847 16.8378 34.418C16.8198 34.396 16.8008 34.374 16.7808 34.353L2.36485 18.013L16.7808 1.673C17.1518 1.264 17.1209 0.631985 16.7109 0.260985C16.5299 0.0929851 16.2938 0.000998779 16.0478 -1.2207e-06Z" transform="translate(17.0601) scale(-1 1)" fill="#999999"/>
</svg>
