<svg width="64" height="64" viewBox="0 0 64 64" fill="none" xmlns="http://www.w3.org/2000/svg">
<path fill-rule="evenodd" clip-rule="evenodd" d="M32 62C15.4315 62 2 48.5685 2 32C2 15.4315 15.4315 2 32 2C48.5685 2 62 15.4315 62 32C62 48.5685 48.5685 62 32 62ZM32 64C14.3269 64 0 49.6731 0 32C0 14.3269 14.3269 0 32 0C49.6731 0 64 14.3269 64 32C64 49.6731 49.6731 64 32 64Z" fill="#1EB5DA"/>
<path d="M32.3871 50.7012C34.5731 50.7012 36.3451 48.9949 36.3451 46.8901C36.3451 44.7854 34.5731 43.0791 32.3871 43.0791C30.2012 43.0791 28.4292 44.7854 28.4292 46.8901C28.4292 48.9949 30.2012 50.7012 32.3871 50.7012Z" fill="#1EB5DA"/>
<path d="M32.557 13.2986C32.5004 13.2986 32.4439 13.2986 32.3873 13.2986C32.3308 13.2986 32.2743 13.2986 32.2177 13.2986C30.0126 13.4619 28.2598 15.2585 28.2598 17.4363L31.6523 39.2136H32.2177H32.6135H33.1789L36.5715 17.4363C36.5149 15.2585 34.8186 13.5164 32.557 13.2986Z" fill="#1EB5DA"/>
</svg>
