<svg width="22" height="24" viewBox="0 0 22 24" fill="none" xmlns="http://www.w3.org/2000/svg">
<path d="M7.78539 20.5671C7.78539 20.8408 7.57251 21.0537 7.2988 21.0537H6.32563C6.05192 21.0537 5.83904 20.8408 5.83904 20.5671V9.86216C5.83904 9.58845 6.05192 9.37557 6.32563 9.37557H7.2988C7.57251 9.37557 7.78539 9.58845 7.78539 9.86216V20.5671ZM11.6781 20.5671C11.6781 20.8408 11.4652 21.0537 11.1915 21.0537H10.2183C9.94462 21.0537 9.73173 20.8408 9.73173 20.5671V9.86216C9.73173 9.58845 9.94462 9.37557 10.2183 9.37557H11.1915C11.4652 9.37557 11.6781 9.58845 11.6781 9.86216V20.5671ZM15.5708 20.5671C15.5708 20.8408 15.3579 21.0537 15.0842 21.0537H14.111C13.8373 21.0537 13.6244 20.8408 13.6244 20.5671V9.86216C13.6244 9.58845 13.8373 9.37557 14.111 9.37557H15.0842C15.3579 9.37557 15.5708 9.58845 15.5708 9.86216V20.5671ZM7.2988 5.48288L8.04389 3.7038C8.0895 3.64297 8.21115 3.55174 8.30239 3.53653H13.1226C13.1987 3.55174 13.3355 3.64297 13.3811 3.7038L14.111 5.48288H7.2988ZM21.4098 5.96947C21.4098 5.69576 21.1969 5.48288 20.9232 5.48288H16.2246L15.1602 2.94351C14.8561 2.19842 13.9437 1.59019 13.1378 1.59019H8.27197C7.46606 1.59019 6.55371 2.19842 6.2496 2.94351L5.18519 5.48288H0.486587C0.212882 5.48288 0 5.69576 0 5.96947V6.94264C0 7.21634 0.212882 7.42923 0.486587 7.42923H1.94635V21.9052C1.94635 23.5778 3.04117 24.9463 4.37928 24.9463H17.0305C18.3686 24.9463 19.4635 23.517 19.4635 21.8444V7.42923H20.9232C21.1969 7.42923 21.4098 7.21634 21.4098 6.94264V5.96947Z" transform="translate(0 -1)" fill="#BDBDBD"/>
</svg>
