<svg width="19" height="17" viewBox="0 0 19 17" fill="none" xmlns="http://www.w3.org/2000/svg">
<path d="M7.14286 17C7.14286 16.2188 6.49554 15.5714 5.71429 15.5714C4.93304 15.5714 4.28571 16.2188 4.28571 17C4.28571 17.7812 4.93304 18.4286 5.71429 18.4286C6.49554 18.4286 7.14286 17.7812 7.14286 17ZM17.1429 17C17.1429 16.2188 16.4955 15.5714 15.7143 15.5714C14.933 15.5714 14.2857 16.2188 14.2857 17C14.2857 17.7812 14.933 18.4286 15.7143 18.4286C16.4955 18.4286 17.1429 17.7812 17.1429 17ZM18.5714 4.85714C18.5714 4.46652 18.2478 4.14286 17.8571 4.14286H4.45313C4.34152 3.60714 4.3192 2.71429 3.57143 2.71429H0.714286C0.323661 2.71429 0 3.03795 0 3.42857C0 3.8192 0.323661 4.14286 0.714286 4.14286H2.99107L4.96652 13.3281C4.78795 13.6741 4.28571 14.5112 4.28571 14.8571C4.28571 15.2478 4.60938 15.5714 5 15.5714H16.4286C16.8192 15.5714 17.1429 15.2478 17.1429 14.8571C17.1429 14.4665 16.8192 14.1429 16.4286 14.1429H6.16071C6.27232 13.9196 6.42857 13.6853 6.42857 13.4286C6.42857 13.1607 6.33929 12.904 6.28348 12.6473L17.9353 11.2857C18.2924 11.2411 18.5714 10.9286 18.5714 10.5714V4.85714Z" transform="translate(0 -2)" fill="black"/>
</svg>
