<svg width="33" height="37" viewBox="0 0 33 37" fill="none" xmlns="http://www.w3.org/2000/svg">
<path d="M21.962 27.1952C23.5008 25.9934 26.6645 22.7751 27.7638 19.1125C25.2603 16.0555 14.7244 3.01228 12.292 -8.0071e-09C12.0432 2.85886 9.51237 8.87501 5.12129 10.8859C3.10378 11.8629 1.09281 12.472 0.327637 12.6876L15.353 30.7467C17.0506 30.2033 20.4047 28.4084 21.962 27.1952Z" fill="#1EB5DA"/>
<path d="M32.1118 28.3291C29.6125 29.7721 26.9667 31.1078 24.1625 32.1184C20.8435 33.3144 16.8376 34.6681 15.5549 35.0433V36.9999L32.1064 31.0925L32.1118 28.3291Z" fill="#1EB5DA"/>
<path d="M-7.92061e-08 13.2595V18.6876L14.9235 36.9517L14.9362 31.2107L-7.92061e-08 13.2595Z" fill="#1EB5DA"/>
<path d="M31.4626 26.4467C29.5332 27.9488 27.0846 29.4696 24.4346 30.7832C21.9272 32.0296 16.4065 33.7096 15.5552 33.9657V34.4023C16.9725 33.9863 20.5676 32.9147 23.721 31.7259C27.2215 30.4065 32.2263 27.2882 32.2263 27.2882L31.4626 26.4467Z" fill="#1EB5DA"/>
<path d="M28.4481 18.9723L28.4043 19.1261C27.308 22.9967 24.0786 26.3231 22.3437 27.6783C20.7191 28.9449 17.3416 30.752 15.5552 31.3271V32.1545C18.066 31.3783 21.575 29.7273 23.5226 28.3679C26.8674 26.0292 30.1342 22.7845 32.1428 19.8177L32.1609 19.8314C29.8981 17.2958 17.3208 3.00686 16.5057 1.97949C16.2292 2.49738 15.9797 2.8439 15.5744 3.08128C19.7394 8.23646 26.5705 16.6856 28.3466 18.8483L28.4481 18.9723Z" fill="#1EB5DA"/>
<path d="M30.9259 22.4419C30.9259 22.4419 26.4702 27.0597 23.8786 28.871C21.6885 30.4006 18.3033 31.902 15.5552 32.7515V33.3232C15.8213 33.2423 16.2619 33.1072 16.8117 32.9335C18.8366 32.2935 22.3525 31.1314 24.1581 30.2346C27.736 28.4607 30.9343 26.3136 32.938 24.3627C32.9588 24.3425 32.9787 24.3222 32.9999 24.3016L30.9259 22.4419Z" fill="#1EB5DA"/>
</svg>
