<svg width="50" height="35" viewBox="0 0 50 35" fill="none" xmlns="http://www.w3.org/2000/svg">
<path d="M0 5.94061C0 4.36506 0.640858 2.85404 1.78159 1.73996C2.92232 0.625884 4.46949 2.26616e-07 6.08273 2.26616e-07H27.7981C29.4113 2.26616e-07 30.9585 0.625884 32.0992 1.73996C33.2399 2.85404 33.8808 4.36506 33.8808 5.94061V6.95051H39.5377C40.3074 6.96408 41.0589 7.18117 41.7122 7.57868C42.3656 7.97618 42.8964 8.53924 43.2482 9.20794L46.9586 15.802C47.8074 15.9421 48.5781 16.3707 49.1347 17.0121C49.6912 17.6535 49.9977 18.4663 50 19.307V27.0892C50 27.8769 49.6796 28.6325 49.1092 29.1895C48.5388 29.7465 47.7653 30.0595 46.9586 30.0595H46.7153C46.4599 31.45 45.7103 32.7079 44.5984 33.6117C43.4866 34.5154 42.084 35.007 40.6374 34.9999C39.1909 34.9928 37.7934 34.4875 36.6909 33.5729C35.5885 32.6582 34.8518 31.393 34.6107 30.0001H17.0925C16.8441 31.3917 16.1009 32.6532 14.9938 33.5623C13.8867 34.4714 12.4866 34.9699 11.0401 34.9699C9.5937 34.9699 8.19363 34.4714 7.08651 33.5623C5.97938 32.6532 5.23619 31.3917 4.98783 30.0001H4.25791C3.12864 30.0001 2.04562 29.562 1.24711 28.7821C0.448597 28.0022 0 26.9445 0 25.8416V5.94061ZM41.1192 10.3367C40.9668 10.0545 40.7397 9.81744 40.4615 9.65025C40.1833 9.48306 39.8643 9.39186 39.5377 9.38616H33.9416V15.7426H44.1606L41.1192 10.3367ZM40.6934 32.5545C41.4273 32.5545 42.1447 32.342 42.7549 31.9438C43.365 31.5456 43.8406 30.9797 44.1215 30.3175C44.4023 29.6554 44.4758 28.9267 44.3326 28.2238C44.1894 27.5209 43.836 26.8752 43.3171 26.3684C42.7982 25.8616 42.1371 25.5164 41.4173 25.3766C40.6975 25.2368 39.9515 25.3086 39.2735 25.5828C38.5955 25.8571 38.016 26.3216 37.6083 26.9175C37.2006 27.5134 36.983 28.2141 36.983 28.9308C36.983 29.8918 37.3739 30.8136 38.0697 31.4932C38.7656 32.1727 39.7094 32.5545 40.6934 32.5545ZM40.6934 22.8713C42.1086 22.8824 43.4774 23.3656 44.5727 24.2408C45.668 25.1161 46.424 26.3307 46.7153 27.6832H46.9586C47.12 27.6832 47.2747 27.6206 47.3888 27.5092C47.5028 27.3978 47.5669 27.2467 47.5669 27.0892V19.307C47.5669 18.9919 47.4387 18.6897 47.2106 18.4668C46.9824 18.244 46.673 18.1189 46.3504 18.1189H33.8808V27.6238H34.6715C34.9646 26.2772 35.723 25.0699 36.8195 24.2046C37.9159 23.3393 39.2837 22.8685 40.6934 22.8713ZM11.0706 32.5545C11.8018 32.5544 12.5167 32.3433 13.1255 31.9477C13.7343 31.5521 14.2098 30.9896 14.4924 30.3309C14.7749 29.6722 14.8519 28.9466 14.7135 28.2454C14.5752 27.5441 14.2278 26.8984 13.715 26.3893C13.2021 25.8802 12.5467 25.5305 11.831 25.384C11.1153 25.2376 10.3712 25.3009 9.69227 25.5661C9.0133 25.8313 8.42971 26.2865 8.01478 26.8745C7.59985 27.4626 7.37209 28.1573 7.3601 28.8714C7.35202 29.3522 7.44204 29.8298 7.62489 30.2764C7.80774 30.7229 8.07977 31.1294 8.42513 31.4722C8.77048 31.8151 9.18225 32.0873 9.63644 32.2731C10.0906 32.4589 10.5781 32.5546 11.0706 32.5545ZM2.43309 25.8416C2.43309 26.3143 2.62535 26.7676 2.96756 27.1018C3.30978 27.4361 3.77394 27.6238 4.25791 27.6238H5.04866C5.32949 26.2662 6.08261 25.0453 7.18023 24.1682C8.27785 23.2911 9.65237 22.8119 11.0706 22.8119C12.4888 22.8119 13.8633 23.2911 14.9609 24.1682C16.0585 25.0453 16.8116 26.2662 17.0925 27.6238H31.4477V5.94061C31.4477 4.99528 31.0632 4.08867 30.3787 3.42022C29.6943 2.75177 28.766 2.37624 27.7981 2.37624H6.08273C5.11478 2.37624 4.18648 2.75177 3.50204 3.42022C2.8176 4.08867 2.43309 4.99528 2.43309 5.94061V25.8416Z" fill="#1FB5DA"/>
</svg>
