<svg width="25" height="25" viewBox="0 0 25 25" fill="none" xmlns="http://www.w3.org/2000/svg">
<path d="M12.492 24.9999C12.3359 24.9999 12.1798 24.8958 12.0758 24.7916L0.108669 7.09056C0.00460679 6.93437 0.00460672 6.72613 0.0566376 6.56994C0.160699 6.36169 0.316792 6.25757 0.524915 6.25757H24.4591C24.6672 6.25757 24.8233 6.36169 24.9274 6.51788C25.0315 6.67406 25.0315 6.88231 24.8754 7.0385L12.9083 24.7396C12.8042 24.8958 12.6481 24.9999 12.492 24.9999ZM1.5135 7.29881L12.492 23.5421L23.4705 7.29881H1.5135Z" fill="#1EB5DA"/>
<path d="M12.4923 25.0001C12.2321 25.0001 12.024 24.8439 11.9719 24.5836L7.80947 6.88249C7.75744 6.72631 7.80947 6.57012 7.91354 6.41394C8.0176 6.30981 8.17369 6.20569 8.32978 6.20569H16.6547C16.8108 6.20569 16.9669 6.25775 17.071 6.41394C17.175 6.51806 17.2271 6.72631 17.175 6.83043L13.0126 24.5315C12.9605 24.8439 12.7524 25.0001 12.4923 25.0001ZM9.00618 7.29899L12.4923 22.1887L15.9783 7.29899H9.00618Z" fill="#1EB5DA"/>
<path d="M24.4592 7.29966H0.525C0.316877 7.29966 0.160784 7.19554 0.0567224 6.98729C-0.0473393 6.77904 0.00469164 6.57079 0.108753 6.41461L5.31184 0.167172C5.4159 0.0630483 5.57199 0.0109863 5.72809 0.0109863H19.2561C19.4122 0.0109863 19.5683 0.0630483 19.6724 0.219234L24.8754 6.46667C24.9795 6.62286 25.0315 6.8311 24.9275 7.03935C24.8234 7.19554 24.6673 7.29966 24.4592 7.29966ZM1.61765 6.25842H23.3145L18.996 1.05223H5.98824L1.61765 6.25842Z" fill="#1EB5DA"/>
<path d="M8.32942 7.29885C8.1213 7.29885 7.91318 7.19473 7.86115 6.98648L5.2596 0.739045C5.15554 0.478735 5.2596 0.166363 5.51976 0.0622395C5.77991 -0.0418845 6.0921 0.0622395 6.19616 0.322549L8.7977 6.56999C8.90176 6.8303 8.7977 7.14267 8.53755 7.24679C8.48552 7.29885 8.38146 7.29885 8.32942 7.29885Z" fill="#1EB5DA"/>
<path d="M16.6546 7.29893C16.6025 7.29893 16.4985 7.29893 16.4465 7.24687C16.1863 7.14274 16.0302 6.83037 16.1863 6.57006L18.7878 0.322625C18.8919 0.0623149 19.2041 -0.093871 19.4642 0.0623149C19.7244 0.166439 19.8805 0.478811 19.7244 0.739121L17.1229 6.98656C17.0708 7.1948 16.8627 7.29893 16.6546 7.29893Z" fill="#1EB5DA"/>
<path d="M16.7588 7.29892C16.6027 7.29892 16.4466 7.24686 16.3426 7.09067L12.4923 1.78035L8.642 7.03861C8.48591 7.24686 8.12169 7.29892 7.91357 7.14274C7.70545 6.98655 7.65342 6.62212 7.80951 6.41387L12.076 0.582928C12.2842 0.322618 12.7004 0.322618 12.9085 0.582928L17.1751 6.46593C17.3312 6.67418 17.2791 7.03861 17.071 7.1948C17.019 7.24686 16.8629 7.29892 16.7588 7.29892Z" fill="#1EB5DA"/>
</svg>
