<svg width="39" height="39" viewBox="0 0 39 39" fill="none" xmlns="http://www.w3.org/2000/svg">
<path d="M23.6113 8.90857L29.0685 14.3657L30.357 13.0772L24.8999 7.62003L23.6113 8.90857Z" fill="#1EB5DA"/>
<path d="M22.4314 10.09L11.714 20.8068L10.412 27.4216L17.0507 26.3849L27.8888 15.5474L22.4314 10.09Z" fill="#1EB5DA"/>
<path d="M19.5 0C8.72979 0 0 8.7309 0 19.5C0 30.2691 8.72979 39 19.5 39C30.2691 39 39 30.2697 39 19.5C39 8.73035 30.2691 0 19.5 0ZM32.1276 13.6681L18.0383 27.7568C17.9131 27.882 17.7517 27.9644 17.577 27.9911L9.49154 29.2536C9.44869 29.2603 9.40529 29.2636 9.363 29.2636C9.13765 29.2636 8.92009 29.1724 8.76095 29.0077C8.57232 28.8113 8.49108 28.5353 8.54394 28.2682L10.1259 20.2345C10.1581 20.072 10.2377 19.9223 10.3546 19.8055L24.3103 5.85028C24.6364 5.52421 25.1644 5.52421 25.4905 5.85028L32.1281 12.4879C32.2845 12.6443 32.3724 12.8568 32.3724 13.0783C32.3724 13.2997 32.2839 13.5112 32.1276 13.6681Z" fill="#1EB5DA"/>
</svg>
