<svg width="13" height="15" viewBox="0 0 13 15" fill="none" xmlns="http://www.w3.org/2000/svg">
<path d="M5.01546 5.71383C4.74139 5.44852 4.72312 4.99368 4.97892 4.70941C5.23472 4.42514 5.67323 4.40619 5.94729 4.67151C5.96557 4.69046 5.96557 4.69046 5.98384 4.70941L9.38229 8.23436C10.1862 9.06822 10.1862 10.4138 9.38229 11.2476C8.57836 12.0815 7.2811 12.0815 6.47716 11.2476L4.04708 8.7271L0.904428 5.46747C-0.301475 4.21668 -0.301475 2.18888 0.904428 0.938092C2.11033 -0.312697 4.06536 -0.312697 5.27126 0.938092L8.39564 4.21668L11.7941 7.72268C13.402 9.3904 13.402 12.0815 11.7941 13.7492C10.1862 15.4169 7.59171 15.4169 5.98384 13.7492L1.61701 9.21984C1.34294 8.95452 1.32467 8.49968 1.58046 8.21541C1.83626 7.93114 2.27477 7.91219 2.54884 8.17751C2.56711 8.19646 2.56711 8.19646 2.58538 8.21541L6.95221 12.7448C8.04849 13.844 9.78426 13.8061 10.8257 12.669C11.8489 11.5698 11.8489 9.82628 10.8257 8.7271L7.42727 5.20215L4.28461 1.94251C3.60857 1.24131 2.53057 1.24131 1.85453 1.94251C1.1785 2.64371 1.1785 3.76184 1.85453 4.46305L5.01546 7.72268L7.42727 10.2432C7.70133 10.5085 8.13985 10.4896 8.39564 10.2053C8.63317 9.93999 8.63317 9.50411 8.39564 9.23879L5.01546 5.71383Z" fill="#828282"/>
</svg>
