<svg width="21" height="20" viewBox="0 0 21 20" fill="none" xmlns="http://www.w3.org/2000/svg">
<path d="M4.71429 19.2857H0V21H4.71429V19.2857ZM9.42857 17.5714H6C5.53125 17.5714 5.14286 17.9598 5.14286 18.4286V21.8571C5.14286 22.3259 5.53125 22.7143 6 22.7143H9.42857C9.89732 22.7143 10.2857 22.3259 10.2857 21.8571V18.4286C10.2857 17.9598 9.89732 17.5714 9.42857 17.5714ZM11.5714 12.4286H0V14.1429H11.5714V12.4286ZM3 5.57143H0V7.28571H3V5.57143ZM20.5714 19.2857H10.7143V21H20.5714V19.2857ZM7.71429 3.85714H4.28571C3.81696 3.85714 3.42857 4.24554 3.42857 4.71429V8.14286C3.42857 8.61161 3.81696 9 4.28571 9H7.71429C8.18304 9 8.57143 8.61161 8.57143 8.14286V4.71429C8.57143 4.24554 8.18304 3.85714 7.71429 3.85714ZM16.2857 10.7143H12.8571C12.3884 10.7143 12 11.1027 12 11.5714V15C12 15.4688 12.3884 15.8571 12.8571 15.8571H16.2857C16.7545 15.8571 17.1429 15.4688 17.1429 15V11.5714C17.1429 11.1027 16.7545 10.7143 16.2857 10.7143ZM20.5714 12.4286H17.5714V14.1429H20.5714V12.4286ZM20.5714 5.57143H9V7.28571H20.5714V5.57143Z" transform="translate(0 -3)" fill="#1EB5DA"/>
</svg>
