<svg width="32" height="25" viewBox="0 0 32 25" fill="none" xmlns="http://www.w3.org/2000/svg">
<path d="M26.7143 18.6786C26.7143 18.6406 26.7143 18.6027 26.6953 18.5647L15.7857 9.57143L4.87612 18.5647C4.87612 18.6027 4.85714 18.6406 4.85714 18.6786V27.7857C4.85714 28.4498 5.40737 29 6.07143 29H13.3571V21.7143H18.2143V29H25.5C26.1641 29 26.7143 28.4498 26.7143 27.7857V18.6786ZM30.9453 17.3694C31.154 17.1228 31.1161 16.7243 30.8694 16.5156L26.7143 13.0625V5.32143C26.7143 4.97991 26.4487 4.71429 26.1071 4.71429H22.4643C22.1228 4.71429 21.8571 4.97991 21.8571 5.32143V9.02121L17.2277 5.15067C16.4308 4.48661 15.1406 4.48661 14.3438 5.15067L0.702009 16.5156C0.455357 16.7243 0.417411 17.1228 0.626116 17.3694L1.80246 18.7734C1.89732 18.8873 2.04911 18.9632 2.20089 18.9821C2.37165 19.0011 2.52344 18.9442 2.65625 18.8493L15.7857 7.90179L28.9152 18.8493C29.029 18.9442 29.1618 18.9821 29.3136 18.9821C29.3326 18.9821 29.3516 18.9821 29.3705 18.9821C29.5223 18.9632 29.6741 18.8873 29.769 18.7734L30.9453 17.3694Z" transform="translate(0 -4)" fill="black"/>
</svg>
