<svg width="18" height="15" viewBox="0 0 18 15" fill="none" xmlns="http://www.w3.org/2000/svg">
<path d="M7.14286 15.9286C7.14286 15.5156 6.70759 15.5714 6.42857 15.5714H3.21429C2.23214 15.5714 1.42857 14.7679 1.42857 13.7857V5.92857C1.42857 4.94643 2.23214 4.14286 3.21429 4.14286H6.78571C7.28795 4.14286 7.14286 3.38393 7.14286 3.07143C7.14286 2.8817 6.97545 2.71429 6.78571 2.71429H3.21429C1.43973 2.71429 0 4.15402 0 5.92857V13.7857C0 15.5603 1.43973 17 3.21429 17H6.78571C7.28795 17 7.14286 16.2411 7.14286 15.9286ZM17.5 9.85714C17.5 9.66741 17.4219 9.48884 17.2879 9.35491L11.2165 3.28348C11.0826 3.14955 10.904 3.07143 10.7143 3.07143C10.3237 3.07143 10 3.39509 10 3.78571V7H5C4.60938 7 4.28571 7.32366 4.28571 7.71429V12C4.28571 12.3906 4.60938 12.7143 5 12.7143H10V15.9286C10 16.3192 10.3237 16.6429 10.7143 16.6429C10.904 16.6429 11.0826 16.5647 11.2165 16.4308L17.2879 10.3594C17.4219 10.2254 17.5 10.0469 17.5 9.85714Z" transform="translate(0 -2)" fill="#BDBDBD"/>
</svg>
