<svg width="12" height="8" viewBox="0 0 12 8" fill="none" xmlns="http://www.w3.org/2000/svg">
<path d="M0 0V5.40487L3.27389 2.70041L0 0Z" transform="translate(0 1.67773)" fill="black"/>
<path d="M5.05372 4.88261C5.29865 5.08504 5.6987 5.08504 5.94363 4.88261L6.70291 4.25912L10.9973 0.716601C10.9279 0.311742 10.5687 0 10.1401 0H0.857254C0.428627 0 0.0693967 0.311742 7.7861e-09 0.716601L4.33117 4.28746L5.05372 4.88261Z" transform="translate(0.012207)" fill="black"/>
<path d="M1.24578e-07 2.70041L3.27389 5.40487V0L1.24578e-07 2.70041Z" transform="translate(7.74902 1.67773)" fill="black"/>
<path d="M6.21713 0.506074L5.6293 0.987857C5.38437 1.19029 4.98432 1.19029 4.73939 0.987857L3.98419 0.364373L3.54332 -1.23553e-07L0 2.92309C0.15104 3.04049 0.338819 3.11337 0.542927 3.11337H9.82576C10.0299 3.11337 10.2176 3.04049 10.3687 2.92309L6.82946 0.00404872L6.21713 0.506074Z" transform="translate(0.326172 4.86621)" fill="black"/>
</svg>
