<svg width="56" height="56" viewBox="0 0 56 56" fill="none" xmlns="http://www.w3.org/2000/svg">
<path fill-rule="evenodd" clip-rule="evenodd" d="M2.5 28C2.5 42.0833 13.9165 53.5 28 53.5C42.0835 53.5 53.5 42.0833 53.5 28C53.5 13.9167 42.0835 2.5 28 2.5C13.9165 2.5 2.5 13.9167 2.5 28ZM0 28C0 43.4639 12.5361 56 28 56C43.4639 56 56 43.4639 56 28C56 12.5361 43.4639 0 28 0C12.5361 0 0 12.5361 0 28ZM33.3242 37.4221H22V35.9041C28.4463 30.4783 31.2588 27.417 31.2588 24.3804C31.2588 21.9912 29.5166 21.5183 27.6997 21.5183C25.2603 21.5183 23.9912 22.3645 23.8418 24.3555H22.1494C22.3735 21.0703 24.5386 20 27.6499 20C30.6362 20 32.9512 20.9956 32.9512 24.1814C32.9512 28.0715 29.4585 31.2908 26.3213 34.1826C25.6851 34.7688 25.0635 35.3418 24.4888 35.9041H33.3242V37.4221Z" fill="#1EB5DA"/>
</svg>
