<svg width="56" height="56" viewBox="0 0 56 56" fill="none" xmlns="http://www.w3.org/2000/svg">
<path fill-rule="evenodd" clip-rule="evenodd" d="M2.5 28C2.5 42.0833 13.9165 53.5 28 53.5C42.0835 53.5 53.5 42.0833 53.5 28C53.5 13.9167 42.0835 2.5 28 2.5C13.9165 2.5 2.5 13.9167 2.5 28ZM0 28C0 43.464 12.5361 56 28 56C43.4639 56 56 43.464 56 28C56 12.536 43.4639 0 28 0C12.5361 0 0 12.536 0 28ZM29.6499 37.1733H27.9326V22.2649L25.1201 25.376L24 24.256L27.9326 20H29.6499V37.1733Z" fill="#1EB5DA"/>
</svg>
