<svg width="40" height="60" viewBox="0 0 40 60" fill="none" xmlns="http://www.w3.org/2000/svg">
<path d="M31.0826 36.3937L31.3132 31.7762L26.8495 30.5668L24.3205 26.6943L19.9987 28.3406L15.6781 26.6943L13.1492 30.5668L8.68548 31.7762L8.91482 36.3937L6.01465 39.9968L8.91482 43.5987L8.68548 48.2181L13.1492 49.4275L15.6781 53.2987L19.9987 51.6518L24.3205 53.2987L26.8495 49.4275L31.3132 48.2181L31.0826 43.5987L33.984 39.9968L31.0826 36.3937ZM23.6538 41.9912L24.9686 47.6431L20 44.6462L15.0326 47.6431L16.3474 41.9912L11.9606 38.1925L17.7422 37.6956L20 32.3512L22.2577 37.6956L28.0381 38.1925L23.6538 41.9912Z" fill="#36C73D"/>
<path d="M19.9994 19.9938C8.9536 19.9938 -7.15144e-08 28.9494 -7.15144e-08 39.9969C-7.15144e-08 51.0438 8.9536 60 19.9994 60C31.0451 60 40 51.0438 40 39.9969C40 28.9494 31.0451 19.9938 19.9994 19.9938ZM33.7216 49.9675L28.3087 51.4331L25.2404 56.1294L19.9994 54.1331L14.7596 56.1294L11.6913 51.4331L6.27839 49.9675L6.55648 44.365L3.0389 39.9969L6.55648 35.6288L6.27839 30.0269L11.6913 28.5613L14.7596 23.8631L19.9994 25.86L25.2404 23.8631L28.3087 28.5613L33.7216 30.0269L33.441 35.6288L36.9611 39.9969L33.441 44.365L33.7216 49.9675Z" fill="#36C73D"/>
<path d="M24.9754 18.0006L15.2513 0H3.25879L12.9829 18.0006H24.9754Z" fill="#36C73D"/>
<path d="M36.7409 0H24.7471L20.9546 7.02063L27.3611 17.3606L36.7409 0Z" fill="#36C73D"/>
</svg>
