<svg width="16" height="21" viewBox="0 0 16 21" fill="none" xmlns="http://www.w3.org/2000/svg">
<path fill-rule="evenodd" clip-rule="evenodd" d="M10.1159 6.53333C9.72681 6.53333 9.41177 6.2207 9.41177 5.83505V0H0.862513C0.38616 0 0 0.382421 0 0.855794V20.1442C0 20.6168 0.38758 21 0.865903 21H15.1341C15.6123 21 16 20.6144 16 20.1419V6.53333H10.1159ZM16 5.6H10.8247C10.5642 5.6 10.3529 5.39069 10.3529 5.13218V0L16 5.6Z" fill="#36C73D"/>
<path d="M4.18722 16C3.91586 16 3.66227 15.9006 3.45143 15.7042C2.90486 15.1956 2.85131 14.5684 3.30878 14.0268C3.77466 13.4749 4.84761 12.9828 6.11436 12.6242C6.25748 12.3337 6.39628 12.0274 6.52764 11.7105C6.67773 11.3483 6.81149 10.989 6.92772 10.6389C6.00797 9.21334 5.43139 7.7395 5.65593 6.89175C5.81802 6.28019 6.33937 5.95664 7.08621 6.00468C7.08933 6.00468 7.09221 6.0049 7.09533 6.00535C7.47164 6.03596 8.13563 6.23349 8.35224 7.21061C8.52994 8.01233 8.3556 9.22697 7.97545 10.499C8.35488 11.0503 8.78401 11.5908 9.22803 12.0636C10.5714 11.9545 11.7824 12.043 12.4253 12.4066C12.9757 12.7181 13.1433 13.2335 12.8736 13.7854C12.8631 13.8076 12.8503 13.8283 12.8362 13.8485C12.3645 14.5067 11.5848 14.6761 10.6982 14.3123C10.1096 14.071 9.47154 13.6016 8.85269 13.0045C8.17693 13.0798 7.47044 13.2007 6.80885 13.3587C6.17847 14.5525 5.44796 15.5149 4.78205 15.8492C4.58057 15.9502 4.37933 16 4.18722 16ZM5.49023 13.7495C4.83993 13.9892 4.32458 14.2703 4.06403 14.5789C3.92571 14.7425 3.90049 14.8582 4.13055 15.0723C4.16777 15.1067 4.19226 15.1292 4.32578 15.0627C4.65285 14.8984 5.0683 14.4194 5.49023 13.7495ZM10.1451 12.9178C10.4672 13.1721 10.7846 13.3714 11.0848 13.4943C11.6928 13.7439 11.9097 13.5238 12.0137 13.3839C12.0672 13.2644 12.0425 13.2364 11.9258 13.1703C11.5927 12.9817 10.9407 12.9051 10.1451 12.9178ZM7.60227 11.5952C7.50718 11.8457 7.4056 12.0942 7.29873 12.3386C7.56145 12.2855 7.82705 12.2383 8.09216 12.1977C7.9243 12.003 7.76077 11.8015 7.60227 11.5952ZM6.93636 6.89332C6.64435 6.89332 6.61337 7.01018 6.58816 7.10559C6.46592 7.56745 6.75962 8.42838 7.28 9.3769C7.46203 8.55529 7.5139 7.85413 7.41112 7.39137C7.30834 6.92795 7.10662 6.9036 7.01585 6.89622C6.98751 6.89421 6.9611 6.89332 6.93636 6.89332Z" fill="white"/>
</svg>
