<svg width="12" height="11" viewBox="0 0 12 11" fill="none" xmlns="http://www.w3.org/2000/svg">
<path d="M2.07947 0.00297858C1.9869 0.00922683 1.88149 0.0248255 1.76677 0.0496977C1.54252 0.0995615 1.36556 0.140081 1.23517 0.189947C0.974404 0.339541 0.698552 0.638737 0.406513 1.18726C0.276103 1.4073 0.175913 1.65035 0.109446 1.8885C0.107943 1.89299 0.11095 1.89936 0.109446 1.90405C0.0773244 2.02075 0.0480916 2.12913 0.0312701 2.24688C0.0132533 2.37583 0 2.50661 0 2.63645C0 2.78605 0.0156111 2.89202 0.0312701 3.04161C0.0521434 3.19121 0.0781512 3.34392 0.12508 3.49352C0.172011 3.64311 0.208411 3.78648 0.234526 3.83634C0.236531 3.84323 0.232522 3.86112 0.234526 3.86751C0.264847 3.94309 0.331644 4.08999 0.406512 4.28825C0.409019 4.2946 0.404006 4.29737 0.406512 4.30381C0.479855 4.49274 0.532124 4.6297 0.547229 4.6778C0.729747 5.17646 0.937957 5.63458 1.18827 6.03354C1.19077 6.03752 1.18576 6.04534 1.18827 6.04901C1.28947 6.20776 1.41324 6.36734 1.53224 6.53207C1.53475 6.53551 1.52973 6.54403 1.53224 6.54755C1.77377 6.88114 2.06212 7.218 2.37654 7.57603C2.5359 7.75025 2.69955 7.92758 2.87686 8.10585C2.87987 8.10888 2.87385 8.11862 2.87686 8.12133C3.23412 8.47039 3.57889 8.78205 3.92441 9.05633C4.09718 9.19346 4.27053 9.32748 4.44037 9.44591C4.60933 9.56769 4.77381 9.68586 4.94069 9.78873C5.14158 9.91363 5.36753 10.0219 5.59737 10.1316C5.72998 10.1968 5.86198 10.2486 6.00388 10.303C6.11089 10.3465 6.20481 10.4033 6.31658 10.4432C6.36362 10.4587 6.48319 10.5052 6.69183 10.5834C6.81833 10.6306 6.87689 10.6492 6.95762 10.6769C7.01004 10.6949 7.09889 10.7271 7.12961 10.7393C7.17094 10.7521 7.25569 10.7681 7.31723 10.786C7.38034 10.8113 7.42041 10.8387 7.50485 10.8639C7.55484 10.8639 7.59889 10.8719 7.64557 10.8794C7.71693 10.8991 7.78513 10.9282 7.84882 10.9417C7.87724 10.9478 7.9152 10.953 7.94264 10.9572C7.9483 10.9597 7.95263 10.9707 7.95825 10.9727H8.36476C8.60467 10.9727 8.84139 10.9322 9.08398 10.8636C9.3262 10.7994 9.57367 10.7158 9.81883 10.5831C10.0822 10.4373 10.301 10.2844 10.4599 10.1468C10.5361 10.0811 10.5952 10.0114 10.6475 9.94423C10.6505 9.94024 10.6445 9.93255 10.6475 9.92874C10.6964 9.86583 10.7468 9.81867 10.7726 9.75735C10.7761 9.74966 10.7691 9.73437 10.7726 9.72617C10.787 9.70121 10.8054 9.65292 10.8194 9.61707C10.8299 9.58556 10.8406 9.55887 10.8507 9.5236C10.8806 9.43125 10.916 9.33583 10.9445 9.2275C10.9705 9.10285 10.9784 9.00311 10.9914 8.91585C10.9924 8.91036 10.9904 8.90555 10.9914 8.90036C11.0029 8.81988 11.0227 8.73683 11.0227 8.66663C11.0227 8.575 11.0046 8.54133 10.9914 8.49523C10.9904 8.49276 10.9924 8.48245 10.9914 8.47974C10.9884 8.4748 10.9661 8.45502 10.9601 8.44858C10.9349 8.41591 10.8921 8.3806 10.8351 8.33948C10.8292 8.3355 10.8256 8.32822 10.8194 8.32399C10.801 8.31122 10.7626 8.29123 10.7413 8.27728C10.648 8.21596 10.5458 8.1559 10.3973 8.07471C10.2982 8.02483 10.1578 7.92511 9.97515 7.82536C9.79254 7.72563 9.62593 7.67575 9.47483 7.57603C9.32874 7.4763 9.1989 7.42644 9.06832 7.32672C9.04729 7.32672 8.97463 7.27062 8.86506 7.17087C8.75549 7.12102 8.66218 7.08049 8.58363 7.03065C8.51058 6.98077 8.43778 6.98392 8.36474 6.98392C8.26067 6.98392 8.12996 7.02129 7.97386 7.1709C7.81726 7.3205 7.68179 7.51996 7.55171 7.66956C7.42113 7.86901 7.27566 8.01861 7.12956 8.16821C6.98347 8.3178 6.86351 8.37081 6.76996 8.37081C6.72292 8.37081 6.65538 8.37383 6.58233 8.32408C6.51479 8.32408 6.46251 8.27734 6.42598 8.27734C6.38946 8.27734 6.32692 8.21813 6.23836 8.16826C6.14981 8.11841 6.10815 8.07478 6.09765 8.07478C5.38318 7.67584 4.76368 7.23328 4.2527 6.73464C3.74162 6.23598 3.2888 5.57838 2.89245 4.88026C2.88719 4.88026 2.85602 4.83977 2.79864 4.74001C2.7465 4.64028 2.71006 4.58729 2.68919 4.53743C2.67358 4.53743 2.65277 4.48133 2.62665 4.3816C2.60058 4.33173 2.59538 4.29121 2.59538 4.24135C2.59538 4.14162 2.66823 3.9858 2.81427 3.8362C2.96547 3.6866 3.12685 3.58064 3.29896 3.43104C3.47627 3.33131 3.63761 3.19106 3.78365 3.04146C3.9349 2.842 4.00254 2.73604 4.00254 2.6363C4.00254 2.53657 3.99214 2.48671 3.95566 2.38698C3.91914 2.33711 3.86188 2.23738 3.78367 2.13765C3.71063 1.98805 3.65857 1.93507 3.64296 1.93507C3.56471 1.78547 3.49184 1.64834 3.40843 1.49874C3.32498 1.34915 3.22611 1.19955 3.127 1.00009C3.02794 0.850491 2.94981 0.694661 2.89247 0.59493C2.70991 0.245871 2.57982 0.052644 2.48596 0.00277742H2.31397C2.24358 0.00277742 2.17202 -0.00347084 2.07945 0.00277742L2.07947 0.00297858Z" transform="translate(0 0.000488281)" fill="black"/>
</svg>
