<svg width="23" height="21" viewBox="0 0 23 21" fill="none" xmlns="http://www.w3.org/2000/svg">
<path fill-rule="evenodd" clip-rule="evenodd" d="M18.2812 4.26079V6.86311H19.9951V5.00384C19.9951 4.5934 19.6541 4.26146 19.2334 4.26079H18.2812Z" fill="#BDBDBD"/>
<path fill-rule="evenodd" clip-rule="evenodd" d="M4.18945 13.9319V15.4197H18.662V13.9319H4.18945Z" fill="#BDBDBD"/>
<path fill-rule="evenodd" clip-rule="evenodd" d="M1.52343 7.60892C0.68204 7.60892 -1.68421e-08 8.27506 -1.68421e-08 9.09684V17.28C-1.68421e-08 17.6909 0.34102 18.024 0.761716 18.024H3.42772V13.9324C3.42772 13.5215 3.76874 13.1884 4.18944 13.1884H18.662C19.0827 13.1884 19.4237 13.5215 19.4237 13.9324V18.024H22.0882C22.5089 18.0239 22.8499 17.6909 22.8499 17.28V9.09684C22.8499 8.27506 22.1679 7.60892 21.3265 7.60892H1.52343ZM17.1386 9.09684C17.1886 9.09684 17.2381 9.10639 17.2844 9.12508C17.3306 9.14378 17.3725 9.17118 17.4079 9.20573C17.4433 9.24027 17.4713 9.28129 17.4905 9.32642C17.5096 9.37155 17.5195 9.41997 17.5195 9.46882C17.5194 9.56746 17.4793 9.66199 17.4079 9.73173C17.3365 9.80147 17.2396 9.84071 17.1386 9.84071C17.0376 9.84071 16.9407 9.80147 16.8693 9.73173C16.7979 9.66199 16.7578 9.56746 16.7577 9.46882C16.7577 9.41997 16.7676 9.37155 16.7867 9.32642C16.8059 9.28129 16.8339 9.24027 16.8693 9.20573C16.9047 9.17118 16.9466 9.14378 16.9928 9.12508C17.0391 9.10639 17.0886 9.09684 17.1386 9.09684ZM19.4237 9.09684C19.4738 9.09684 19.5233 9.10639 19.5695 9.12508C19.6157 9.14378 19.6577 9.17118 19.6931 9.20573C19.7284 9.24027 19.7565 9.28129 19.7756 9.32642C19.7948 9.37155 19.8046 9.41997 19.8046 9.46882C19.8046 9.56746 19.7645 9.66199 19.693 9.73173C19.6216 9.80147 19.5247 9.84071 19.4237 9.84071C19.3228 9.84071 19.2259 9.80147 19.1545 9.73173C19.083 9.66199 19.0429 9.56746 19.0429 9.46882C19.0429 9.41997 19.0527 9.37155 19.0719 9.32642C19.091 9.28129 19.1191 9.24027 19.1544 9.20573C19.1898 9.17118 19.2318 9.14378 19.278 9.12508C19.3242 9.10639 19.3737 9.09684 19.4237 9.09684ZM20.9472 9.09684C20.9972 9.09684 21.0467 9.10639 21.0929 9.12508C21.1391 9.14378 21.1811 9.17118 21.2165 9.20573C21.2519 9.24027 21.2799 9.28129 21.299 9.32642C21.3182 9.37155 21.328 9.41997 21.328 9.46882C21.328 9.56746 21.2879 9.66199 21.2165 9.73173C21.145 9.80147 21.0482 9.84071 20.9472 9.84071C20.8462 9.84071 20.7493 9.80147 20.6779 9.73173C20.6065 9.66199 20.5663 9.56746 20.5663 9.46882C20.5663 9.41997 20.5762 9.37155 20.5953 9.32642C20.6144 9.28129 20.6425 9.24027 20.6779 9.20573C20.7132 9.17118 20.7552 9.14378 20.8014 9.12508C20.8476 9.10639 20.8972 9.09684 20.9472 9.09684Z" fill="#BDBDBD"/>
<path fill-rule="evenodd" clip-rule="evenodd" d="M5.14025 16.1638L3.04614 20.628H19.8039L17.7086 16.1638H5.14025Z" fill="#BDBDBD"/>
<path fill-rule="evenodd" clip-rule="evenodd" d="M5.33203 0.913073V6.86467H17.5195V0.913073H5.33203Z" fill="#BDBDBD"/>
<path fill-rule="evenodd" clip-rule="evenodd" d="M4.57031 4.26079V6.86311H2.85645V5.00384C2.85645 4.5934 3.19747 4.26146 3.61816 4.26079H4.57031Z" fill="#BDBDBD"/>
</svg>
