<svg width="23" height="18" viewBox="0 0 23 18" fill="none" xmlns="http://www.w3.org/2000/svg">
<path d="M12.7517 16.5227C10.2486 16.886 7.66894 16.0868 5.88103 14.3917C4.37408 12.963 3.53121 11.05 3.53121 9.01584C3.53121 7.19965 4.19529 5.48033 5.42128 4.10003L5.9832 7.34495C6.05982 7.7324 6.4174 7.97456 6.80053 7.90191C7.18365 7.82926 7.46461 7.46603 7.38798 7.07857L6.57065 2.2112C6.54511 2.04169 6.44294 1.8964 6.28969 1.79954L6.26415 1.77532C6.26415 1.77532 6.23861 1.77532 6.23861 1.75111C6.08536 1.65424 5.90657 1.63003 5.72778 1.65424L0.619474 2.55023C0.210809 2.62287 -0.0446061 2.98611 0.00647696 3.34935C0.0831016 3.71258 0.440683 3.97896 0.849348 3.90631L4.22083 3.30091C2.84159 4.89916 2.07534 6.88485 2.07534 8.99162C2.10088 11.4132 3.07146 13.6653 4.85937 15.3604C6.64728 17.0555 9.07372 17.9999 11.5768 17.9999C12.0365 17.9999 12.4963 17.9757 12.9816 17.903C13.3902 17.8546 13.6457 17.4914 13.5946 17.1281C13.518 16.7165 13.1604 16.4501 12.7517 16.5227Z" fill="#1EB5DA"/>
<path d="M22.9935 14.7066C22.9169 14.3434 22.5593 14.077 22.1506 14.1497L18.7792 14.7551C20.235 13.1326 21.0013 11.0985 21.0013 8.96748C21.0013 6.57012 20.0051 4.31805 18.2172 2.62295C16.0973 0.613041 13.0834 -0.331374 10.1206 0.10451C9.71191 0.152941 9.45649 0.516178 9.50758 0.879414C9.55866 1.26687 9.94178 1.50902 10.3249 1.46059C12.828 1.09736 15.4077 1.89648 17.1956 3.59158C18.7025 5.02031 19.5454 6.93336 19.5454 8.96748C19.5454 10.8321 18.8302 12.5998 17.5532 13.9801L16.9912 10.7352C16.9146 10.3478 16.557 10.1056 16.1739 10.1783C15.7908 10.2509 15.5098 10.6142 15.5865 11.0016L16.4293 15.869C16.4549 16.0385 16.557 16.1838 16.7103 16.2806L16.7358 16.3049C16.7358 16.3049 16.7614 16.3049 16.7614 16.3291C16.9146 16.4259 17.0934 16.4502 17.2722 16.4259L22.3805 15.53C22.7892 15.4573 23.0446 15.0941 22.9935 14.7066Z" fill="#1EB5DA"/>
</svg>
