<svg width="15" height="16" viewBox="0 0 15 16" fill="none" xmlns="http://www.w3.org/2000/svg">
<path d="M10.2857 7.71429C10.2857 9.91964 8.49107 11.7143 6.28571 11.7143C4.08036 11.7143 2.28571 9.91964 2.28571 7.71429C2.28571 5.50893 4.08036 3.71428 6.28571 3.71428C8.49107 3.71428 10.2857 5.50893 10.2857 7.71429ZM14.8571 15.1429C14.8571 14.8393 14.7321 14.5446 14.5268 14.3393L11.4643 11.2768C12.1875 10.2321 12.5714 8.98214 12.5714 7.71429C12.5714 4.24107 9.75893 1.42857 6.28571 1.42857C2.8125 1.42857 0 4.24107 0 7.71429C0 11.1875 2.8125 14 6.28571 14C7.55357 14 8.80357 13.6161 9.84822 12.8929L12.9107 15.9464C13.1161 16.1607 13.4107 16.2857 13.7143 16.2857C14.3393 16.2857 14.8571 15.7679 14.8571 15.1429Z" transform="translate(0 -1)" fill="black"/>
</svg>
