<svg width="21" height="21" viewBox="0 0 21 21" fill="none" xmlns="http://www.w3.org/2000/svg">
<path d="M3.62911 14.5012C4.60727 14.5012 5.4935 14.1215 6.14602 13.5068L13.337 17.0188C13.3191 17.162 13.3067 17.3071 13.3067 17.4552C13.3067 19.4129 14.9316 21 16.9358 21C18.9401 21 20.5649 19.4129 20.5649 17.4552C20.5649 15.4976 18.9401 13.9104 16.9358 13.9104C15.9577 13.9104 15.0714 14.2904 14.4189 14.9051L7.22797 11.3929C7.24588 11.2497 7.25822 11.1046 7.25822 10.9564C7.25822 10.8083 7.24588 10.6632 7.22797 10.52L14.4189 7.00801C15.0717 7.62268 15.9577 8.00268 16.9358 8.00268C18.9401 8.00268 20.5649 6.41556 20.5649 4.45788C20.5649 2.50021 18.9401 0.913086 16.9358 0.913086C14.9316 0.913086 13.3067 2.50021 13.3067 4.45788C13.3067 4.60606 13.3191 4.75116 13.337 4.8946L6.14602 8.40608C5.4935 7.79141 4.60727 7.41165 3.62911 7.41165C1.62487 7.41165 0 8.99877 0 10.9564C0 12.9141 1.62487 14.5012 3.62911 14.5012Z" fill="#BDBDBD"/>
</svg>
