<svg width="59" height="59" viewBox="0 0 59 59" fill="none" xmlns="http://www.w3.org/2000/svg">
<path fill-rule="evenodd" clip-rule="evenodd" d="M2.48877 29.2444C2.48877 14.4678 14.4678 2.48889 29.2446 2.48889C29.9316 2.48889 30.4888 1.93176 30.4888 1.24445C30.4888 0.557129 29.9316 0 29.2446 0C13.0933 0 0 13.0932 0 29.2444C0 45.3957 13.0933 58.4889 29.2446 58.4889C45.3955 58.4889 58.4888 45.3957 58.4888 29.2444C58.4888 22.0516 55.8906 15.4623 51.5825 10.3691C51.1387 9.84436 50.3535 9.77875 49.8286 10.2226C49.3042 10.6664 49.2383 11.4516 49.6821 11.9764C53.6245 16.6371 56 22.6618 56 29.2444C56 44.0211 44.021 56 29.2446 56C14.4678 56 2.48877 44.0211 2.48877 29.2444ZM39.8794 38.9333H28.5552V37.4151C35.001 31.9893 37.8135 28.928 37.8135 25.8915C37.8135 23.5022 36.0713 23.0294 34.2544 23.0294C31.8154 23.0294 30.5459 23.8755 30.397 25.8666H28.7041C28.9282 22.5814 31.0938 21.5111 34.2046 21.5111C37.1914 21.5111 39.5059 22.5067 39.5059 25.6924C39.5059 29.583 36.0132 32.8024 32.876 35.6942C32.2397 36.2803 31.6187 36.853 31.0439 37.4151H39.8794V38.9333ZM24.6899 38.9333H22.9727V24.0249L20.1602 27.136L19.04 26.016L22.9727 21.76H24.6899V38.9333Z" fill="#1EB5DA"/>
</svg>
