<svg width="59" height="59" viewBox="0 0 59 59" fill="none" xmlns="http://www.w3.org/2000/svg">
<path fill-rule="evenodd" clip-rule="evenodd" d="M2.48877 29.2444C2.48877 14.4678 14.4678 2.48889 29.2446 2.48889C29.9316 2.48889 30.4888 1.93176 30.4888 1.24445C30.4888 0.557129 29.9316 0 29.2446 0C13.0933 0 0 13.0932 0 29.2444C0 45.3957 13.0933 58.4889 29.2446 58.4889C45.3955 58.4889 58.4888 45.3957 58.4888 29.2444C58.4888 22.0516 55.8906 15.4623 51.5825 10.3691C51.1387 9.84436 50.3535 9.77875 49.8286 10.2226C49.3042 10.6664 49.2383 11.4516 49.6821 11.9764C53.6245 16.6371 56 22.6618 56 29.2444C56 44.0211 44.021 56 29.2446 56C14.4678 56 2.48877 44.0211 2.48877 29.2444ZM25.5137 29.376C26.3853 28.4053 27.6045 27.7333 29.4463 27.7333C32.6074 27.7333 34.8721 29.6996 34.8721 33.2587C34.8721 36.6685 32.8062 39.1823 28.5503 39.1823C25.7627 39.1823 23.4482 38.112 23.249 34.8267H24.9414C25.1157 36.8925 26.6089 37.664 28.6001 37.664C31.7861 37.664 33.1797 35.7227 33.1797 33.2836C33.1797 30.5458 31.4126 29.2516 29.1973 29.2516C27.3555 29.2516 25.8125 30.1725 25.2402 31.4667H23.6973L24.6675 21.76H33.752V23.2783H26.1113L25.5137 29.376Z" fill="#1EB5DA"/>
</svg>
