<svg width="59" height="59" viewBox="0 0 59 59" fill="none" xmlns="http://www.w3.org/2000/svg">
<path fill-rule="evenodd" clip-rule="evenodd" d="M2.48877 29.2444C2.48877 14.4678 14.4678 2.48889 29.2446 2.48889C29.9316 2.48889 30.4888 1.93176 30.4888 1.24445C30.4888 0.557129 29.9316 0 29.2446 0C13.0933 0 0 13.0932 0 29.2444C0 45.3957 13.0933 58.4889 29.2446 58.4889C45.3955 58.4889 58.4888 45.3957 58.4888 29.2444C58.4888 22.0516 55.8906 15.4623 51.5825 10.3691C51.1387 9.84436 50.3535 9.77875 49.8286 10.2226C49.3042 10.6664 49.2383 11.4516 49.6821 11.9764C53.6245 16.6371 56 22.6618 56 29.2444C56 44.0211 44.021 56 29.2446 56C14.4678 56 2.48877 44.0211 2.48877 29.2444ZM25.6914 29.376C26.563 28.4053 27.7822 27.7333 29.624 27.7333C32.7852 27.7333 35.0498 29.6996 35.0498 33.2587C35.0498 36.6685 32.9839 39.1823 28.728 39.1823C25.9404 39.1823 23.626 38.112 23.4268 34.8267H25.1191C25.2935 36.8925 26.7866 37.664 28.7778 37.664C31.9639 37.664 33.3574 35.7227 33.3574 33.2836C33.3574 30.5458 31.5903 29.2516 29.375 29.2516C27.5332 29.2516 25.9902 30.1725 25.418 31.4667H23.875L24.8452 21.76H33.9297V23.2783H26.2891L25.6914 29.376Z" fill="#1EB5DA"/>
</svg>
