<svg width="47" height="37" viewBox="0 0 47 37" fill="none" xmlns="http://www.w3.org/2000/svg">
<path fill-rule="evenodd" clip-rule="evenodd" d="M40.3881 0H7.24817C5.54285 0 3.90735 0.666992 2.70142 1.85352C1.49561 3.04053 0.818115 4.65039 0.818115 6.3291V30.6709C0.818115 31.502 0.984375 32.3252 1.30762 33.0933C1.63074 33.8608 2.10437 34.5586 2.70142 35.1465C3.29858 35.7339 4.00745 36.2002 4.78748 36.5181C5.56763 36.8364 6.40381 37 7.24817 37H40.3881C41.2324 37 42.0686 36.8364 42.8488 36.5181C43.6288 36.2002 44.3376 35.7339 44.9348 35.1465C45.5319 34.5586 46.0055 33.8608 46.3286 33.0933C46.6519 32.3252 46.8181 31.502 46.8181 30.6709V6.3291C46.8181 4.65039 46.1406 3.04053 44.9348 1.85352C43.7289 0.666992 42.0934 0 40.3881 0ZM43.8503 30.6709C43.8503 31.5747 43.4856 32.4419 42.8363 33.0806C42.187 33.7197 41.3063 34.0791 40.3881 34.0791H7.24817C6.32996 34.0791 5.44934 33.7197 4.79993 33.0806C4.15063 32.4419 3.78589 31.5747 3.78589 30.6709V13.6313H43.8503V30.6709ZM43.8503 10.7104H3.78589V6.3291C3.78589 5.42529 4.15063 4.55811 4.79993 3.91943C5.44934 3.28027 6.32996 2.9209 7.24817 2.9209H40.3881C41.3063 2.9209 42.187 3.28027 42.8363 3.91943C43.4856 4.55811 43.8503 5.42529 43.8503 6.3291V10.7104ZM14.6677 9.25049C16.0336 9.25049 17.1409 8.16064 17.1409 6.81592C17.1409 5.47168 16.0336 4.38184 14.6677 4.38184C13.3019 4.38184 12.1946 5.47168 12.1946 6.81592C12.1946 8.16064 13.3019 9.25049 14.6677 9.25049ZM23.5712 6.81592C23.5712 8.16064 22.4639 9.25049 21.098 9.25049C19.7322 9.25049 18.6249 8.16064 18.6249 6.81592C18.6249 5.47168 19.7322 4.38184 21.098 4.38184C22.4639 4.38184 23.5712 5.47168 23.5712 6.81592ZM8.2373 9.25049C9.60315 9.25049 10.7104 8.16064 10.7104 6.81592C10.7104 5.47168 9.60315 4.38184 8.2373 4.38184C6.87146 4.38184 5.76416 5.47168 5.76416 6.81592C5.76416 8.16064 6.87146 9.25049 8.2373 9.25049ZM27.2306 31.6934L23.5209 27.3604L20.8004 31.9365L15.9531 15.3354L31.6821 23.0762L26.5381 24.8774L30.2478 29.2104L27.2306 31.6934Z" fill="#1FB5DA"/>
</svg>
