<svg width="179" height="25" viewBox="0 0 179 25" fill="none" xmlns="http://www.w3.org/2000/svg">
<!-- <rect width="179" height="25" fill="" fill-opacity="0"/> -->
<!-- <rect width="27" height="25" fill="" fill-opacity="0"/>
<rect width="27" height="25" fill="" fill-opacity="0"/> -->
<path d="M21.364 24.9999C21.477 25.0016 21.5889 24.9785 21.6915 24.9325C21.794 24.8865 21.8846 24.8188 21.9566 24.7342C22.0285 24.6496 22.0799 24.5505 22.107 24.444C22.1342 24.3375 22.1363 24.2265 22.1132 24.1192L20.3776 15.9126L26.7525 10.2668C26.8601 10.1722 26.9372 10.0494 26.9746 9.91332C27.012 9.77719 27.0081 9.63349 26.9633 9.49946C26.9186 9.36543 26.835 9.24678 26.7225 9.15777C26.61 9.06876 26.4734 9.01318 26.3291 8.9977L17.7531 8.06276L14.1887 0.434269C14.1294 0.305 14.0329 0.195173 13.9106 0.118096C13.7884 0.0410193 13.6458 1.10421e-05 13.5 1.10421e-05C13.3542 1.10421e-05 13.2116 0.0410193 13.0894 0.118096C12.9671 0.195173 12.8706 0.305 12.8113 0.434269L9.2469 8.06276L0.670905 8.9977C0.526636 9.01318 0.390041 9.06876 0.277532 9.15777C0.165022 9.24678 0.0813835 9.36543 0.0366645 9.49946C-0.00805443 9.63349 -0.0119516 9.77719 0.0254414 9.91332C0.0628344 10.0494 0.139927 10.1722 0.247457 10.2668L6.62245 15.9126L4.88678 24.1192C4.8575 24.2567 4.86958 24.3994 4.92158 24.5304C4.97358 24.6614 5.06331 24.7751 5.18006 24.8579C5.29681 24.9407 5.43566 24.9893 5.58002 24.9976C5.72439 25.006 5.86819 24.9739 5.99426 24.9051L13.5 20.7633L21.0057 24.9051C21.1152 24.9652 21.2383 24.9978 21.364 24.9999ZM20.3031 22.832L13.8723 19.2864C13.7588 19.2239 13.6305 19.191 13.5 19.191C13.3695 19.191 13.2412 19.2239 13.1277 19.2864L6.6969 22.832L8.18595 15.7997C8.21173 15.6755 8.20384 15.5469 8.16306 15.4266C8.12227 15.3062 8.04999 15.1982 7.95329 15.1131L2.49034 10.2714L9.84252 9.47193C9.97183 9.45749 10.0951 9.41081 10.2003 9.33641C10.3055 9.262 10.389 9.16241 10.4428 9.04736L13.5 2.51189L16.5572 9.04736C16.611 9.16241 16.6945 9.262 16.7997 9.33641C16.9049 9.41081 17.0282 9.45749 17.1575 9.47193L24.5097 10.2714L19.0467 15.1131C18.95 15.1982 18.8777 15.3062 18.8369 15.4266C18.7962 15.5469 18.7883 15.6755 18.814 15.7997L20.3031 22.832Z" fill="#1EB5DA"/>
<path d="M20.3031 22.832L13.8723 19.2864C13.7588 19.2239 13.6305 19.191 13.5 19.191C13.3695 19.191 13.2412 19.2239 13.1277 19.2864L6.6969 22.832L8.18595 15.7997C8.21173 15.6755 8.20384 15.5469 8.16306 15.4266C8.12227 15.3062 8.04999 15.1982 7.95329 15.1131L2.49034 10.2714L9.84252 9.47193C9.97183 9.45749 10.0951 9.41081 10.2003 9.33641C10.3055 9.262 10.389 9.16241 10.4428 9.04736L13.5 2.51189L16.5572 9.04736C16.611 9.16241 16.6945 9.262 16.7997 9.33641C16.9049 9.41081 17.0282 9.45749 17.1575 9.47193L24.5097 10.2714L19.0467 15.1131C18.95 15.1982 18.8777 15.3062 18.8369 15.4266C18.7962 15.5469 18.7883 15.6755 18.814 15.7997L20.3031 22.832Z" fill="#1EB5DA"/>
<!-- <rect width="27" height="25" fill="" fill-opacity="0" transform="translate(38)"/>
<rect width="27" height="25" fill="" fill-opacity="0" transform="translate(38)"/> -->
<path d="M59.364 24.9999C59.477 25.0016 59.5889 24.9785 59.6915 24.9325C59.794 24.8865 59.8846 24.8188 59.9566 24.7342C60.0285 24.6496 60.0799 24.5505 60.107 24.444C60.1342 24.3375 60.1363 24.2265 60.1132 24.1192L58.3776 15.9126L64.7525 10.2668C64.8601 10.1722 64.9372 10.0494 64.9746 9.91332C65.012 9.77719 65.0081 9.63349 64.9633 9.49946C64.9186 9.36543 64.835 9.24678 64.7225 9.15777C64.61 9.06876 64.4734 9.01318 64.3291 8.9977L55.7531 8.06276L52.1887 0.434269C52.1294 0.305 52.0329 0.195173 51.9106 0.118096C51.7884 0.0410193 51.6458 1.10421e-05 51.5 1.10421e-05C51.3542 1.10421e-05 51.2116 0.0410193 51.0894 0.118096C50.9671 0.195173 50.8706 0.305 50.8113 0.434269L47.2469 8.06276L38.6709 8.9977C38.5266 9.01318 38.39 9.06876 38.2775 9.15777C38.165 9.24678 38.0814 9.36543 38.0367 9.49946C37.9919 9.63349 37.988 9.77719 38.0254 9.91332C38.0628 10.0494 38.1399 10.1722 38.2475 10.2668L44.6225 15.9126L42.8868 24.1192C42.8575 24.2567 42.8696 24.3994 42.9216 24.5304C42.9736 24.6614 43.0633 24.7751 43.1801 24.8579C43.2968 24.9407 43.4357 24.9893 43.58 24.9976C43.7244 25.006 43.8682 24.9739 43.9943 24.9051L51.5 20.7633L59.0057 24.9051C59.1152 24.9652 59.2383 24.9978 59.364 24.9999ZM58.3031 22.832L51.8723 19.2864C51.7588 19.2239 51.6305 19.191 51.5 19.191C51.3695 19.191 51.2412 19.2239 51.1277 19.2864L44.6969 22.832L46.186 15.7997C46.2117 15.6755 46.2038 15.5469 46.1631 15.4266C46.1223 15.3062 46.05 15.1982 45.9533 15.1131L40.4903 10.2714L47.8425 9.47193C47.9718 9.45749 48.0951 9.41081 48.2003 9.33641C48.3055 9.262 48.389 9.16241 48.4428 9.04736L51.5 2.51189L54.5572 9.04736C54.611 9.16241 54.6945 9.262 54.7997 9.33641C54.9049 9.41081 55.0282 9.45749 55.1575 9.47193L62.5097 10.2714L57.0467 15.1131C56.95 15.1982 56.8777 15.3062 56.8369 15.4266C56.7962 15.5469 56.7883 15.6755 56.814 15.7997L58.3031 22.832Z" fill="#1EB5DA"/>
<path d="M58.3031 22.832L51.8723 19.2864C51.7588 19.2239 51.6305 19.191 51.5 19.191C51.3695 19.191 51.2412 19.2239 51.1277 19.2864L44.6969 22.832L46.186 15.7997C46.2117 15.6755 46.2038 15.5469 46.1631 15.4266C46.1223 15.3062 46.05 15.1982 45.9533 15.1131L40.4903 10.2714L47.8425 9.47193C47.9718 9.45749 48.0951 9.41081 48.2003 9.33641C48.3055 9.262 48.389 9.16241 48.4428 9.04736L51.5 2.51189L54.5572 9.04736C54.611 9.16241 54.6945 9.262 54.7997 9.33641C54.9049 9.41081 55.0282 9.45749 55.1575 9.47193L62.5097 10.2714L57.0467 15.1131C56.95 15.1982 56.8777 15.3062 56.8369 15.4266C56.7962 15.5469 56.7883 15.6755 56.814 15.7997L58.3031 22.832Z" fill="#1EB5DA"/>
<!-- <rect width="27" height="25" fill="" fill-opacity="0" transform="translate(76)"/>
<rect width="27" height="25" fill="" fill-opacity="0" transform="translate(76)"/> -->
<path d="M97.364 24.9999C97.477 25.0016 97.5889 24.9785 97.6915 24.9325C97.794 24.8865 97.8846 24.8188 97.9566 24.7342C98.0285 24.6496 98.0799 24.5505 98.107 24.444C98.1342 24.3375 98.1363 24.2265 98.1132 24.1192L96.3776 15.9126L102.753 10.2668C102.86 10.1722 102.937 10.0494 102.975 9.91332C103.012 9.77719 103.008 9.63349 102.963 9.49946C102.919 9.36543 102.835 9.24678 102.722 9.15777C102.61 9.06876 102.473 9.01318 102.329 8.9977L93.7531 8.06276L90.1887 0.434269C90.1294 0.305 90.0329 0.195173 89.9106 0.118096C89.7884 0.0410193 89.6458 1.10421e-05 89.5 1.10421e-05C89.3542 1.10421e-05 89.2116 0.0410193 89.0894 0.118096C88.9671 0.195173 88.8706 0.305 88.8113 0.434269L85.2469 8.06276L76.6709 8.9977C76.5266 9.01318 76.39 9.06876 76.2775 9.15777C76.165 9.24678 76.0814 9.36543 76.0367 9.49946C75.9919 9.63349 75.988 9.77719 76.0254 9.91332C76.0628 10.0494 76.1399 10.1722 76.2475 10.2668L82.6225 15.9126L80.8868 24.1192C80.8575 24.2567 80.8696 24.3994 80.9216 24.5304C80.9736 24.6614 81.0633 24.7751 81.1801 24.8579C81.2968 24.9408 81.4357 24.9893 81.58 24.9976C81.7244 25.006 81.8682 24.9739 81.9943 24.9051L89.5 20.7633L97.0057 24.9051C97.1152 24.9652 97.2383 24.9978 97.364 24.9999ZM96.3031 22.832L89.8723 19.2864C89.7588 19.2239 89.6305 19.191 89.5 19.191C89.3695 19.191 89.2412 19.2239 89.1277 19.2864L82.6969 22.832L84.186 15.7997C84.2117 15.6755 84.2038 15.5469 84.1631 15.4266C84.1223 15.3062 84.05 15.1982 83.9533 15.1131L78.4903 10.2714L85.8425 9.47193C85.9718 9.45749 86.0951 9.41081 86.2003 9.33641C86.3055 9.262 86.389 9.16241 86.4428 9.04736L89.5 2.51189L92.5572 9.04736C92.611 9.16241 92.6945 9.262 92.7997 9.33641C92.9049 9.41081 93.0282 9.45749 93.1575 9.47193L100.51 10.2714L95.0467 15.1131C94.95 15.1982 94.8777 15.3062 94.8369 15.4266C94.7962 15.5469 94.7883 15.6755 94.814 15.7997L96.3031 22.832Z" fill="#1EB5DA"/>
<!-- <rect width="27" height="25"  fill-opacity="0" transform="translate(114)"/>
<rect width="27" height="25"  fill-opacity="0" transform="translate(114)"/> -->
<path d="M135.364 24.9999C135.477 25.0016 135.589 24.9785 135.691 24.9325C135.794 24.8865 135.885 24.8188 135.957 24.7342C136.028 24.6496 136.08 24.5505 136.107 24.444C136.134 24.3375 136.136 24.2265 136.113 24.1192L134.378 15.9126L140.753 10.2668C140.86 10.1722 140.937 10.0494 140.975 9.91332C141.012 9.77719 141.008 9.63349 140.963 9.49946C140.919 9.36543 140.835 9.24678 140.722 9.15777C140.61 9.06876 140.473 9.01318 140.329 8.9977L131.753 8.06276L128.189 0.434269C128.129 0.305 128.033 0.195173 127.911 0.118096C127.788 0.0410193 127.646 1.10421e-05 127.5 1.10421e-05C127.354 1.10421e-05 127.212 0.0410193 127.089 0.118096C126.967 0.195173 126.871 0.305 126.811 0.434269L123.247 8.06276L114.671 8.9977C114.527 9.01318 114.39 9.06876 114.278 9.15777C114.165 9.24678 114.081 9.36543 114.037 9.49946C113.992 9.63349 113.988 9.77719 114.025 9.91332C114.063 10.0494 114.14 10.1722 114.247 10.2668L120.622 15.9126L118.887 24.1192C118.857 24.2567 118.87 24.3994 118.922 24.5304C118.974 24.6614 119.063 24.7751 119.18 24.8579C119.297 24.9408 119.436 24.9893 119.58 24.9976C119.724 25.006 119.868 24.9739 119.994 24.9051L127.5 20.7633L135.006 24.9051C135.115 24.9652 135.238 24.9978 135.364 24.9999ZM134.303 22.832L127.872 19.2864C127.759 19.2239 127.631 19.191 127.5 19.191C127.369 19.191 127.241 19.2239 127.128 19.2864L120.697 22.832L122.186 15.7997C122.212 15.6755 122.204 15.5469 122.163 15.4266C122.122 15.3062 122.05 15.1982 121.953 15.1131L116.49 10.2714L123.843 9.47193C123.972 9.45749 124.095 9.41081 124.2 9.33641C124.305 9.262 124.389 9.16241 124.443 9.04736L127.5 2.51189L130.557 9.04736C130.611 9.16241 130.695 9.262 130.8 9.33641C130.905 9.41081 131.028 9.45749 131.157 9.47193L138.51 10.2714L133.047 15.1131C132.95 15.1982 132.878 15.3062 132.837 15.4266C132.796 15.5469 132.788 15.6755 132.814 15.7997L134.303 22.832Z" fill="#1EB5DA"/>
<!-- <rect width="27" height="25" fill="black" fill-opacity="0" transform="translate(152)"/>
<rect width="27" height="25" fill="black" fill-opacity="0" transform="translate(152)"/> -->
<path d="M173.364 24.9999C173.477 25.0016 173.589 24.9785 173.691 24.9325C173.794 24.8865 173.885 24.8188 173.957 24.7342C174.028 24.6496 174.08 24.5505 174.107 24.444C174.134 24.3375 174.136 24.2265 174.113 24.1192L172.378 15.9126L178.753 10.2668C178.86 10.1722 178.937 10.0494 178.975 9.91332C179.012 9.77719 179.008 9.63349 178.963 9.49946C178.919 9.36543 178.835 9.24678 178.722 9.15777C178.61 9.06876 178.473 9.01318 178.329 8.9977L169.753 8.06276L166.189 0.434269C166.129 0.305 166.033 0.195173 165.911 0.118096C165.788 0.0410193 165.646 1.10421e-05 165.5 1.10421e-05C165.354 1.10421e-05 165.212 0.0410193 165.089 0.118096C164.967 0.195173 164.871 0.305 164.811 0.434269L161.247 8.06276L152.671 8.9977C152.527 9.01318 152.39 9.06876 152.278 9.15777C152.165 9.24678 152.081 9.36543 152.037 9.49946C151.992 9.63349 151.988 9.77719 152.025 9.91332C152.063 10.0494 152.14 10.1722 152.247 10.2668L158.622 15.9126L156.887 24.1192C156.857 24.2567 156.87 24.3994 156.922 24.5304C156.974 24.6614 157.063 24.7751 157.18 24.8579C157.297 24.9408 157.436 24.9893 157.58 24.9976C157.724 25.006 157.868 24.9739 157.994 24.9051L165.5 20.7633L173.006 24.9051C173.115 24.9652 173.238 24.9978 173.364 24.9999ZM172.303 22.832L165.872 19.2864C165.759 19.2239 165.631 19.191 165.5 19.191C165.369 19.191 165.241 19.2239 165.128 19.2864L158.697 22.832L160.186 15.7997C160.212 15.6755 160.204 15.5469 160.163 15.4266C160.122 15.3062 160.05 15.1982 159.953 15.1131L154.49 10.2714L161.843 9.47193C161.972 9.45749 162.095 9.41081 162.2 9.33641C162.305 9.262 162.389 9.16241 162.443 9.04736L165.5 2.51189L168.557 9.04736C168.611 9.16241 168.695 9.262 168.8 9.33641C168.905 9.41081 169.028 9.45749 169.157 9.47193L176.51 10.2714L171.047 15.1131C170.95 15.1982 170.878 15.3062 170.837 15.4266C170.796 15.5469 170.788 15.6755 170.814 15.7997L172.303 22.832Z" fill="#1EB5DA"/>
</svg>
