<svg width="40" height="39" viewBox="0 0 40 39" fill="none" xmlns="http://www.w3.org/2000/svg">
<path fill-rule="evenodd" clip-rule="evenodd" d="M37.5242 19.5C37.5242 29.0024 29.8208 36.7061 20.3182 36.7061C10.8157 36.7061 3.1123 29.0024 3.1123 19.5C3.1123 9.99756 10.8157 2.29395 20.3182 2.29395C29.8208 2.29395 37.5242 9.99756 37.5242 19.5ZM39.8182 19.5C39.8182 30.2695 31.0878 39 20.3182 39C9.54871 39 0.818237 30.2695 0.818237 19.5C0.818237 8.73047 9.54871 0 20.3182 0C31.0878 0 39.8182 8.73047 39.8182 19.5ZM28.9208 9.17676V14.2402L23.3363 14.2666V30.9707H17.4813V14.2925H11.7148V9.17676H28.9208Z" fill="#1FB5DA"/>
</svg>
