<svg width="15" height="21" viewBox="0 0 15 21" fill="none" xmlns="http://www.w3.org/2000/svg">
<path d="M13.057 0.368341C13.5018 -0.0749291 14.2222 -0.0749291 14.6666 0.368341C15.1111 0.811895 15.1111 1.53044 14.6666 1.97371L6.14972 10.4679L14.6698 19.0305C15.1125 19.4752 15.1096 20.1943 14.6638 20.6356C14.4418 20.8553 14.1519 20.9651 13.862 20.9651C13.5692 20.9651 13.2767 20.853 13.0542 20.6294L3.73575 11.2645C3.29388 10.821 3.2953 10.1044 3.73888 9.66226L13.057 0.368341Z" fill="#E0E0E0"/>
<path d="M1.85821 0C2.48674 0 2.99634 0.508257 2.99634 1.13514V19.8649C2.99634 20.4917 2.48674 21 1.85821 21C1.22968 21 0.720081 20.4917 0.720081 19.8649V1.13514C0.720081 0.508257 1.22968 0 1.85821 0Z" fill="#E0E0E0"/>
</svg>
