<svg width="15" height="21" viewBox="0 0 15 21" fill="none" xmlns="http://www.w3.org/2000/svg">
<path d="M1.94297 0.368341C1.49825 -0.0749291 0.777812 -0.0749291 0.333373 0.368341C-0.111066 0.811895 -0.111066 1.53044 0.333373 1.97371L8.85028 10.4679L0.330243 19.0305C-0.112489 19.4752 -0.109644 20.1943 0.336218 20.6356C0.558153 20.8553 0.848092 20.9651 1.13803 20.9651C1.43081 20.9651 1.72331 20.853 1.94582 20.6294L11.2642 11.2645C11.7061 10.821 11.7047 10.1044 11.2611 9.66226L1.94297 0.368341Z" fill="#E0E0E0"/>
<path d="M13.142 0C12.5135 0 12.0039 0.508257 12.0039 1.13514V19.8649C12.0039 20.4917 12.5135 21 13.142 21C13.7706 21 14.2802 20.4917 14.2802 19.8649V1.13514C14.2802 0.508257 13.7706 0 13.142 0Z" fill="#E0E0E0"/>
</svg>
